<svg width="14" height="19" viewBox="0 0 14 19" fill="none" xmlns="http://www.w3.org/2000/svg">
<path d="M0.500007 15.77C0.358007 15.77 0.23934 15.7217 0.144007 15.625C0.0486736 15.5283 0.000673516 15.4093 6.84931e-06 15.268C-0.000659817 15.1267 0.0473402 15.008 0.144007 14.912C0.240674 14.816 0.35934 14.7683 0.500007 14.769H1.61601V6.846C1.61601 5.53933 2.02934 4.39033 2.85601 3.399C3.68267 2.40767 4.73067 1.79 6.00001 1.546V1C6.00001 0.722 6.09701 0.486 6.29101 0.292C6.48501 0.0973334 6.72067 0 6.99801 0C7.27534 0 7.51167 0.0973334 7.70701 0.292C7.90234 0.486667 8.00001 0.722667 8.00001 1V1.546C9.26934 1.78933 10.3173 2.407 11.144 3.399C11.9707 4.391 12.384 5.54 12.384 6.846V14.769H13.5C13.642 14.769 13.7607 14.817 13.856 14.913C13.952 15.009 14 15.128 14 15.27C14 15.412 13.952 15.5307 13.856 15.626C13.76 15.7213 13.6413 15.769 13.5 15.769L0.500007 15.77ZM6.99701 18.385C6.55167 18.385 6.17167 18.2267 5.85701 17.91C5.54234 17.5933 5.38501 17.2133 5.38501 16.77H8.61501C8.61501 17.2167 8.45667 17.5973 8.14001 17.912C7.82267 18.2267 7.44167 18.385 6.99701 18.385ZM7.00001 9.808C7.14201 9.808 7.26067 9.76 7.35601 9.664C7.45134 9.568 7.49901 9.44933 7.49901 9.308V5.5C7.49901 5.358 7.45101 5.23933 7.35501 5.144C7.25901 5.04867 7.14034 5.00067 6.99901 5C6.85767 4.99933 6.73901 5.04733 6.64301 5.144C6.54701 5.24067 6.49934 5.35933 6.50001 5.5V9.308C6.50001 9.44933 6.54801 9.568 6.64401 9.664C6.74001 9.76 6.85901 9.808 7.00101 9.808M7.00001 12.616C7.17467 12.616 7.32101 12.557 7.43901 12.439C7.55701 12.321 7.61567 12.1747 7.61501 12C7.61434 11.8253 7.55534 11.6793 7.43801 11.562C7.32067 11.4447 7.17467 11.3857 7.00001 11.385C6.82534 11.3843 6.67934 11.4433 6.56201 11.562C6.44467 11.6807 6.38567 11.8267 6.38501 12C6.38434 12.1733 6.44334 12.3197 6.56201 12.439C6.68067 12.5583 6.82667 12.6173 7.00001 12.616Z" fill="#7149E1"/>
</svg>
