<svg width="30" height="16" viewBox="0 0 30 16" fill="none" xmlns="http://www.w3.org/2000/svg">
<g opacity="0.3">
<path d="M2.92188 14.3398H27.3537V15.4998H2.92188V14.3398Z" fill="#767676"/>
<path d="M2.91942 14.3398V15.4997C2.0277 15.5019 0.763672 15.2399 0.763672 14.9197C0.763672 14.5996 1.75876 14.3398 2.91942 14.3398Z" fill="#767676"/>
<path d="M27.3496 14.3398V15.4997C28.2413 15.5019 29.5054 15.2399 29.5054 14.9197C29.5054 14.5996 28.5103 14.3398 27.3496 14.3398Z" fill="#767676"/>
</g>
<path d="M26.8203 1H3.46638C2.47422 1 1.66992 1.51932 1.66992 2.15994V13.7594C1.66992 14.4 2.47422 14.9193 3.46638 14.9193H26.8203C27.8124 14.9193 28.6167 14.4 28.6167 13.7594V2.15994C28.6167 1.51932 27.8124 1 26.8203 1Z" fill="#767676"/>
<path opacity="0.5" d="M26.8203 1H3.46638C2.47422 1 1.66992 1.51932 1.66992 2.15994V13.7594C1.66992 14.4 2.47422 14.9193 3.46638 14.9193H26.8203C27.8124 14.9193 28.6167 14.4 28.6167 13.7594V2.15994C28.6167 1.51932 27.8124 1 26.8203 1Z" stroke="#D7D7D7" stroke-linecap="round" stroke-linejoin="round"/>
<path d="M27.9722 1H2.29655C1.44996 1 0.763672 1.55133 0.763672 2.23142V14.2686C0.763672 14.9487 1.44996 15.5 2.29655 15.5H27.9722C28.8188 15.5 29.5051 14.9487 29.5051 14.2686V2.23142C29.5051 1.55133 28.8188 1 27.9722 1Z" fill="#767676"/>
<path d="M9.23768 13.982V13.217C9.23768 12.9236 9.01541 12.7324 8.65059 12.7324C8.45898 12.7324 8.25396 12.7836 8.11102 12.9479C7.99988 12.8076 7.84276 12.7324 7.60325 12.7324C7.42237 12.7262 7.24964 12.7932 7.14339 12.911V12.7571H6.8418V13.9811H7.14339V13.2807C7.14339 13.0652 7.30204 12.9621 7.52431 12.9621C7.74658 12.9621 7.87342 13.0769 7.87342 13.2807V13.982H8.17502V13.2807C8.17502 13.0652 8.33367 12.9621 8.55594 12.9621C8.7782 12.9621 8.90505 13.0769 8.90505 13.2807V13.982H9.23768ZM14.1896 12.7706H13.634V12.4012H13.3331V12.7706H13.0158V12.9861H13.3331V13.5612C13.3331 13.8417 13.46 14.0076 13.8409 14.0076C13.9852 14.0052 14.1266 13.9745 14.2529 13.9183L14.1574 13.7028C14.0718 13.7458 13.9725 13.7679 13.8716 13.7665C13.7129 13.7665 13.6336 13.6899 13.6336 13.5624V12.9763H14.1893V12.7722L14.1896 12.7706ZM17.0147 12.7324C16.8476 12.7295 16.6909 12.7973 16.602 12.911V12.7571H16.3004V13.9811H16.602V13.2937C16.602 13.0896 16.7288 12.9621 16.9354 12.9621C17.0051 12.9644 17.0743 12.973 17.1416 12.9877L17.237 12.758C17.1642 12.7433 17.0897 12.7347 17.0147 12.7324ZM12.7453 12.8599C12.5866 12.7706 12.3644 12.7324 12.1264 12.7324C11.7455 12.7324 11.5075 12.8728 11.5075 13.1151C11.5075 13.3192 11.6822 13.4337 12.0153 13.4722L12.1739 13.4848C12.3487 13.5104 12.4598 13.5615 12.4598 13.6252C12.4598 13.7145 12.3329 13.7792 12.0946 13.7792C11.9126 13.7822 11.7343 13.7374 11.5868 13.6517L11.4282 13.8429C11.6504 13.9703 11.9202 13.9968 12.0796 13.9968C12.5242 13.9968 12.7621 13.8312 12.7621 13.6015C12.7621 13.386 12.5705 13.2829 12.2383 13.2444L12.0796 13.2318C11.9367 13.2192 11.8114 13.1807 11.8114 13.1043C11.8114 13.0151 11.9382 12.9504 12.113 12.9504C12.3046 12.9504 12.4939 13.0141 12.5893 13.0523L12.7453 12.8599ZM17.3481 13.37C17.3481 13.7394 17.6497 14.0076 18.1418 14.0076C18.364 14.0076 18.5227 13.9694 18.6813 13.8672L18.5227 13.676C18.4104 13.7491 18.2706 13.7896 18.1261 13.7909C17.8578 13.7909 17.6497 13.6252 17.6497 13.3829C17.6497 13.1407 17.8551 12.9763 18.1261 12.9763C18.2706 12.9776 18.4104 13.018 18.5227 13.0911L18.6813 12.8999C18.5227 12.798 18.364 12.7595 18.1418 12.7595C17.6654 12.734 17.3481 13.0018 17.3481 13.3716V13.37ZM15.2213 12.7324C14.7767 12.7324 14.4751 12.9874 14.4751 13.37C14.4751 13.7527 14.7924 14.0076 15.2527 14.0076C15.4766 14.0114 15.6952 13.9529 15.8716 13.842L15.7129 13.6634C15.5854 13.7428 15.4297 13.7874 15.2684 13.7909C15.0622 13.7909 14.84 13.689 14.8085 13.4722H15.9356V13.3703C15.9356 12.9877 15.6497 12.7328 15.2213 12.7328V12.7324ZM15.2056 12.9621C15.4278 12.9621 15.5865 13.0769 15.6022 13.2681H14.7771C14.8246 13.0896 14.9687 12.9621 15.2056 12.9621ZM11.0948 13.37V12.758H10.7932V12.9119C10.682 12.7971 10.5249 12.7334 10.3011 12.7334C9.87268 12.7334 9.55499 13.0012 9.55499 13.3709C9.55499 13.7407 9.87229 14.0085 10.3011 14.0085C10.5234 14.0085 10.682 13.9448 10.7932 13.83V13.9839H11.0948V13.37ZM9.87268 13.37C9.87268 13.1404 10.0474 12.9621 10.349 12.9621C10.6349 12.9621 10.8089 13.1407 10.8089 13.37C10.8089 13.6123 10.6173 13.7779 10.349 13.7779C10.0474 13.7905 9.87268 13.5994 9.87268 13.37ZM21.6022 12.7324C21.4351 12.7295 21.2784 12.7973 21.1895 12.911V12.7571H20.8879V13.9811H21.1891V13.2937C21.1891 13.0896 21.316 12.9621 21.5225 12.9621C21.5922 12.9644 21.6614 12.973 21.7287 12.9877L21.8241 12.758C21.7514 12.7433 21.6769 12.7347 21.6019 12.7324H21.6022ZM20.4277 13.37V12.758H20.1261V12.9119C20.015 12.7971 19.8578 12.7334 19.634 12.7334C19.2056 12.7334 18.8879 13.0012 18.8879 13.3709C18.8879 13.7407 19.2052 14.0085 19.634 14.0085C19.8563 14.0085 20.015 13.9448 20.1261 13.83V13.9839H20.4277V13.37ZM19.2056 13.37C19.2056 13.1404 19.3803 12.9621 19.6819 12.9621C19.9678 12.9621 20.1418 13.1407 20.1418 13.37C20.1418 13.6123 19.9502 13.7779 19.6819 13.7779C19.3803 13.7905 19.2056 13.5994 19.2056 13.37ZM23.4911 13.37V12.2734H23.1895V12.911C23.0784 12.7962 22.9213 12.7324 22.6975 12.7324C22.269 12.7324 21.9514 13.0003 21.9514 13.37C21.9514 13.7398 22.2687 14.0076 22.6975 14.0076C22.9198 14.0076 23.0784 13.9439 23.1895 13.829V13.983H23.4911V13.37ZM22.269 13.37C22.269 13.1404 22.4438 12.9621 22.7454 12.9621C23.0313 12.9621 23.2052 13.1407 23.2052 13.37C23.2052 13.6123 23.0136 13.7779 22.7454 13.7779C22.4434 13.7909 22.2687 13.5997 22.2687 13.37H22.269Z" fill="white"/>
<path d="M18.1349 10.5183C20.946 10.5183 23.2248 9.0469 23.2248 7.23182C23.2248 5.41673 20.946 3.94531 18.1349 3.94531C15.3238 3.94531 13.0449 5.41673 13.0449 7.23182C13.0449 9.0469 15.3238 10.5183 18.1349 10.5183Z" fill="#F79E1B"/>
<path d="M11.4114 10.9488C14.4097 10.9488 16.8403 9.41598 16.8403 7.52517C16.8403 5.63437 14.4097 4.10156 11.4114 4.10156C8.41304 4.10156 5.98242 5.63437 5.98242 7.52517C5.98242 9.41598 8.41304 10.9488 11.4114 10.9488Z" fill="#EB001B"/>
<path d="M14.6097 4.76172C13.9182 5.07876 13.3551 5.49431 12.9665 5.97455C12.5778 6.45479 12.3745 6.98614 12.373 7.52531C12.3742 8.06435 12.5771 8.5956 12.9653 9.07583C13.3536 9.55606 13.9161 9.97169 14.6072 10.2889C15.2988 9.97186 15.8619 9.5563 16.2505 9.07606C16.6392 8.59582 16.8425 8.06448 16.8439 7.52531C16.8428 6.98627 16.6399 6.45502 16.2516 5.97479C15.8634 5.49456 15.3008 5.07892 14.6097 4.76172Z" fill="#FF5F00"/>
</svg>
