<svg width="24" height="24" viewBox="0 0 24 24" fill="none" xmlns="http://www.w3.org/2000/svg">
<path d="M14.9494 10.6458L14 4H10L9.0506 10.6458C8.58103 10.8667 8.14536 11.1411 7.75736 11.4645C6.63214 12.4021 6 13.6739 6 15L12 15H18C18 13.6739 17.3679 12.4021 16.2426 11.4645C15.8546 11.1411 15.419 10.8667 14.9494 10.6458Z" fill="#EB001B"/>
<path d="M12 15L6 15C6 13.6739 6.63214 12.4021 7.75736 11.4645C8.14536 11.1411 8.58103 10.8667 9.0506 10.6458L10 4H14L14.9494 10.6458C15.419 10.8667 15.8546 11.1411 16.2426 11.4645C17.3679 12.4021 18 13.6739 18 15H12ZM12 15V20M8 4H16" stroke="#EB001B" stroke-width="1.5" stroke-linecap="round" stroke-linejoin="round"/>
</svg>
