<svg width="54" height="53" viewBox="0 0 54 53" fill="none" xmlns="http://www.w3.org/2000/svg">
<path d="M27 28.565L36.4675 38.0325C36.7397 38.3047 37.0742 38.4506 37.4708 38.47C37.8675 38.4894 38.2214 38.3436 38.5325 38.0325C38.8436 37.7214 38.9992 37.3772 38.9992 37C38.9992 36.6228 38.8436 36.2786 38.5325 35.9675L29.065 26.5L38.5325 17.0325C38.8047 16.7603 38.9506 16.4258 38.97 16.0292C38.9894 15.6325 38.8436 15.2786 38.5325 14.9675C38.2214 14.6564 37.8772 14.5008 37.5 14.5008C37.1228 14.5008 36.7786 14.6564 36.4675 14.9675L27 24.435L17.5325 14.9675C17.2603 14.6953 16.9258 14.5494 16.5292 14.53C16.1325 14.5106 15.7786 14.6564 15.4675 14.9675C15.1564 15.2786 15.0008 15.6228 15.0008 16C15.0008 16.3772 15.1564 16.7214 15.4675 17.0325L24.935 26.5L15.4675 35.9675C15.1953 36.2397 15.0494 36.5751 15.03 36.9737C15.0106 37.3685 15.1564 37.7214 15.4675 38.0325C15.7786 38.3436 16.1228 38.4992 16.5 38.4992C16.8772 38.4992 17.2214 38.3436 17.5325 38.0325L27 28.565ZM27.0088 52.75C23.3785 52.75 19.966 52.0617 16.7712 50.685C13.5765 49.3064 10.7969 47.4358 8.4325 45.0733C6.06806 42.7108 4.19653 39.9342 2.81792 36.7433C1.43931 33.5525 0.75 30.141 0.75 26.5087C0.75 22.8765 1.43931 19.464 2.81792 16.2712C4.19458 13.0765 6.06222 10.2969 8.42083 7.9325C10.7794 5.56805 13.5571 3.69653 16.7538 2.31792C19.9504 0.939306 23.3629 0.25 26.9912 0.25C30.6196 0.25 34.0321 0.939306 37.2288 2.31792C40.4235 3.69458 43.2031 5.56319 45.5675 7.92375C47.9319 10.2843 49.8035 13.0619 51.1821 16.2567C52.5607 19.4514 53.25 22.8629 53.25 26.4912C53.25 30.1196 52.5617 33.5321 51.185 36.7287C49.8083 39.9254 47.9378 42.705 45.5733 45.0675C43.2089 47.43 40.4322 49.3015 37.2433 50.6821C34.0544 52.0626 30.6429 52.7519 27.0088 52.75ZM27 49.8333C33.5139 49.8333 39.0312 47.5729 43.5521 43.0521C48.0729 38.5312 50.3333 33.0139 50.3333 26.5C50.3333 19.9861 48.0729 14.4687 43.5521 9.94792C39.0312 5.42708 33.5139 3.16667 27 3.16667C20.4861 3.16667 14.9688 5.42708 10.4479 9.94792C5.92708 14.4687 3.66667 19.9861 3.66667 26.5C3.66667 33.0139 5.92708 38.5312 10.4479 43.0521C14.9688 47.5729 20.4861 49.8333 27 49.8333Z" fill="#FE0B0B"/>
</svg>
