<svg width="41" height="40" viewBox="0 0 41 40" fill="none" xmlns="http://www.w3.org/2000/svg">
<path d="M0.92334 12C0.92334 5.37258 6.29592 0 12.9233 0H28.9233C35.5508 0 40.9233 5.37258 40.9233 12V28C40.9233 34.6274 35.5508 40 28.9233 40H12.9233C6.29592 40 0.92334 34.6274 0.92334 28V12Z" fill="url(#paint0_linear_856_1042)"/>
<path d="M22.7567 25.5L18.7567 21.6429H21.4233C22.5279 21.6429 23.4233 20.7474 23.4233 19.6429V18.5C23.4233 17.3954 22.5279 16.5 21.4233 16.5H17.4233H25.4233M19.4233 19.0718L25.4233 19.0718M30.4233 20.5C30.4233 25.4706 26.3939 29.5 21.4233 29.5C16.4528 29.5 12.4233 25.4706 12.4233 20.5C12.4233 15.5294 16.4528 11.5 21.4233 11.5C26.3939 11.5 30.4233 15.5294 30.4233 20.5Z" stroke="#FAFAFA" stroke-width="1.5" stroke-linecap="round" stroke-linejoin="round"/>
<defs>
<linearGradient id="paint0_linear_856_1042" x1="20.9233" y1="0" x2="20.9233" y2="40" gradientUnits="userSpaceOnUse">
<stop stop-color="#2133D6"/>
<stop offset="0.65" stop-color="#7D21CF"/>
</linearGradient>
</defs>
</svg>
