<svg width="15" height="14" viewBox="0 0 15 14" fill="none" xmlns="http://www.w3.org/2000/svg">
<path d="M14.1107 0H5.55509C5.34013 0 5.16619 0.173943 5.16619 0.388901C5.16619 0.603859 5.34013 0.777802 5.55509 0.777802H13.1719L0.613453 13.3362C0.461531 13.4881 0.461531 13.7342 0.613453 13.8861C0.689396 13.962 0.788927 14 0.888422 14C0.987917 14 1.08741 13.962 1.16339 13.8861L13.7218 1.3277V8.94447C13.7218 9.15943 13.8957 9.33337 14.1107 9.33337C14.3257 9.33337 14.4996 9.15943 14.4996 8.94447V0.388901C14.4996 0.173943 14.3256 0 14.1107 0Z" fill="#FAFAFA"/>
</svg>
