<svg width="13" height="10" viewBox="0 0 13 10" fill="none" xmlns="http://www.w3.org/2000/svg">
<path d="M2.02239 3.05176e-05C1.60448 3.05176e-05 1.24627 0.136642 0.947761 0.409866C0.649254 0.683091 0.5 1.01779 0.5 1.41397C0.5 1.81014 0.649254 2.14484 0.947761 2.41806C1.24627 2.69129 1.60448 2.8279 2.02239 2.8279C2.4403 2.8279 2.79851 2.69129 3.09701 2.41806C3.39552 2.14484 3.54478 1.81014 3.54478 1.41397C3.54478 1.01779 3.39552 0.683091 3.09701 0.409866C2.79851 0.136642 2.4403 3.05176e-05 2.02239 3.05176e-05ZM2.02239 0.778719C2.20149 0.778719 2.36567 0.840195 2.51493 0.963145C2.66418 1.0861 2.73881 1.23637 2.73881 1.41397C2.73881 1.59156 2.66418 1.74183 2.51493 1.86478C2.36567 1.98774 2.20149 2.04921 2.02239 2.04921C1.84328 2.04921 1.6791 1.98774 1.52985 1.86478C1.3806 1.74183 1.30597 1.59156 1.30597 1.41397C1.30597 1.23637 1.3806 1.0861 1.52985 0.963145C1.6791 0.840195 1.84328 0.778719 2.02239 0.778719ZM2.02239 7.17216C1.60448 7.17216 1.24627 7.30877 0.947761 7.582C0.649254 7.85522 0.5 8.18992 0.5 8.5861C0.5 8.98227 0.649254 9.31697 0.947761 9.59019C1.24627 9.86342 1.60448 10 2.02239 10C2.4403 10 2.79851 9.86342 3.09701 9.59019C3.39552 9.31697 3.54478 8.98227 3.54478 8.5861C3.54478 8.18992 3.39552 7.85522 3.09701 7.582C2.79851 7.30877 2.4403 7.17216 2.02239 7.17216ZM2.02239 7.95085C2.20149 7.95085 2.36567 8.01233 2.51493 8.13528C2.66418 8.25823 2.73881 8.4085 2.73881 8.5861C2.73881 8.76369 2.66418 8.91396 2.51493 9.03692C2.36567 9.15987 2.20149 9.22134 2.02239 9.22134C1.84328 9.22134 1.6791 9.15987 1.52985 9.03692C1.3806 8.91396 1.30597 8.76369 1.30597 8.5861C1.30597 8.4085 1.3806 8.25823 1.52985 8.13528C1.6791 8.01233 1.84328 7.95085 2.02239 7.95085ZM6.5 3.05176e-05C6.08209 3.05176e-05 5.72388 0.136642 5.42537 0.409866C5.12687 0.683091 4.97761 1.01779 4.97761 1.41397C4.97761 1.81014 5.12687 2.14484 5.42537 2.41806C5.72388 2.69129 6.08209 2.8279 6.5 2.8279C6.91791 2.8279 7.27612 2.69129 7.57463 2.41806C7.87313 2.14484 8.02239 1.81014 8.02239 1.41397C8.02239 1.01779 7.87313 0.683091 7.57463 0.409866C7.27612 0.136642 6.91791 3.05176e-05 6.5 3.05176e-05ZM6.5 0.778719C6.6791 0.778719 6.84328 0.840195 6.99254 0.963145C7.14179 1.0861 7.21642 1.23637 7.21642 1.41397C7.21642 1.59156 7.14179 1.74183 6.99254 1.86478C6.84328 1.98774 6.6791 2.04921 6.5 2.04921C6.3209 2.04921 6.15672 1.98774 6.00746 1.86478C5.85821 1.74183 5.78358 1.59156 5.78358 1.41397C5.78358 1.23637 5.85821 1.0861 6.00746 0.963145C6.15672 0.840195 6.3209 0.778719 6.5 0.778719ZM6.5 7.17216C6.08209 7.17216 5.72388 7.30877 5.42537 7.582C5.12687 7.85522 4.97761 8.18992 4.97761 8.5861C4.97761 8.98227 5.12687 9.31697 5.42537 9.59019C5.72388 9.86342 6.08209 10 6.5 10C6.91791 10 7.27612 9.86342 7.57463 9.59019C7.87313 9.31697 8.02239 8.98227 8.02239 8.5861C8.02239 8.18992 7.87313 7.85522 7.57463 7.582C7.27612 7.30877 6.91791 7.17216 6.5 7.17216ZM6.5 7.95085C6.6791 7.95085 6.84328 8.01233 6.99254 8.13528C7.14179 8.25823 7.21642 8.4085 7.21642 8.5861C7.21642 8.76369 7.14179 8.91396 6.99254 9.03692C6.84328 9.15987 6.6791 9.22134 6.5 9.22134C6.3209 9.22134 6.15672 9.15987 6.00746 9.03692C5.85821 8.91396 5.78358 8.76369 5.78358 8.5861C5.78358 8.4085 5.85821 8.25823 6.00746 8.13528C6.15672 8.01233 6.3209 7.95085 6.5 7.95085ZM10.9776 3.05176e-05C10.5597 3.05176e-05 10.2015 0.136642 9.90298 0.409866C9.60448 0.683091 9.45522 1.01779 9.45522 1.41397C9.45522 1.81014 9.60448 2.14484 9.90298 2.41806C10.2015 2.69129 10.5597 2.8279 10.9776 2.8279C11.3955 2.8279 11.7537 2.69129 12.0522 2.41806C12.3507 2.14484 12.5 1.81014 12.5 1.41397C12.5 1.01779 12.3507 0.683091 12.0522 0.409866C11.7537 0.136642 11.3955 3.05176e-05 10.9776 3.05176e-05ZM10.9776 0.778719C11.1567 0.778719 11.3209 0.840195 11.4701 0.963145C11.6194 1.0861 11.694 1.23637 11.694 1.41397C11.694 1.59156 11.6194 1.74183 11.4701 1.86478C11.3209 1.98774 11.1567 2.04921 10.9776 2.04921C10.7985 2.04921 10.6343 1.98774 10.4851 1.86478C10.3358 1.74183 10.2612 1.59156 10.2612 1.41397C10.2612 1.23637 10.3358 1.0861 10.4851 0.963145C10.6343 0.840195 10.7985 0.778719 10.9776 0.778719ZM10.9776 7.17216C10.5597 7.17216 10.2015 7.30877 9.90298 7.582C9.60448 7.85522 9.45522 8.18992 9.45522 8.5861C9.45522 8.98227 9.60448 9.31697 9.90298 9.59019C10.2015 9.86342 10.5597 10 10.9776 10C11.3955 10 11.7537 9.86342 12.0522 9.59019C12.3507 9.31697 12.5 8.98227 12.5 8.5861C12.5 8.18992 12.3507 7.85522 12.0522 7.582C11.7537 7.30877 11.3955 7.17216 10.9776 7.17216ZM10.9776 7.95085C11.1567 7.95085 11.3209 8.01233 11.4701 8.13528C11.6194 8.25823 11.694 8.4085 11.694 8.5861C11.694 8.76369 11.6194 8.91396 11.4701 9.03692C11.3209 9.15987 11.1567 9.22134 10.9776 9.22134C10.7985 9.22134 10.6343 9.15987 10.4851 9.03692C10.3358 8.91396 10.2612 8.76369 10.2612 8.5861C10.2612 8.4085 10.3358 8.25823 10.4851 8.13528C10.6343 8.01233 10.7985 7.95085 10.9776 7.95085ZM1.6194 2.41806V7.54101C1.6194 7.6503 1.65672 7.74593 1.73134 7.8279C1.80597 7.90987 1.90299 7.95085 2.02239 7.95085C2.14179 7.95085 2.23881 7.90987 2.31343 7.8279C2.38806 7.74593 2.42537 7.66396 2.42537 7.582V2.41806C2.42537 2.3361 2.38806 2.25413 2.31343 2.17216C2.23881 2.09019 2.14179 2.04921 2.02239 2.04921C1.90299 2.04921 1.80597 2.09019 1.73134 2.17216C1.65672 2.25413 1.6194 2.3361 1.6194 2.41806ZM6.09701 2.41806V7.54101C6.09701 7.6503 6.13433 7.74593 6.20896 7.8279C6.28358 7.90987 6.3806 7.95085 6.5 7.95085C6.6194 7.95085 6.71642 7.90987 6.79104 7.8279C6.86567 7.74593 6.90299 7.66396 6.90299 7.582V2.41806C6.90299 2.3361 6.86567 2.25413 6.79104 2.17216C6.71642 2.09019 6.6194 2.04921 6.5 2.04921C6.3806 2.04921 6.28358 2.09019 6.20896 2.17216C6.13433 2.25413 6.09701 2.3361 6.09701 2.41806ZM10.5746 2.41806V4.46724C10.5746 4.52189 10.5597 4.56287 10.5299 4.59019C10.5 4.61752 10.4701 4.63118 10.4403 4.63118H2.02239C1.90299 4.63118 1.80597 4.66533 1.73134 4.73364C1.65672 4.80194 1.6194 4.89074 1.6194 5.00003C1.6194 5.10932 1.65672 5.19812 1.73134 5.26642C1.80597 5.33473 1.90299 5.36888 2.02239 5.36888H10.4403C10.709 5.36888 10.9328 5.28692 11.1119 5.12298C11.291 4.95905 11.3806 4.74047 11.3806 4.46724V2.45905C11.3806 2.34976 11.3433 2.25413 11.2687 2.17216C11.194 2.09019 11.097 2.04921 10.9776 2.04921C10.8582 2.04921 10.7612 2.09019 10.6866 2.17216C10.6119 2.25413 10.5746 2.3361 10.5746 2.41806Z" fill="#666666"/>
</svg>
