<svg width="30" height="31" viewBox="0 0 30 31" fill="none" xmlns="http://www.w3.org/2000/svg">
<rect y="0.5" width="30" height="30" rx="4" fill="white"/>
<path d="M21.088 20.4962C19.8849 22.1521 18.1247 23.3183 16.1307 23.7805C14.1367 24.2426 12.0429 23.9698 10.234 23.012C8.42508 22.0542 7.02252 20.4759 6.28399 18.5669C5.54547 16.6579 5.52059 14.5466 6.21394 12.6207C6.90728 10.6949 8.27227 9.08393 10.0581 8.0838C11.844 7.08367 13.9308 6.76155 15.9351 7.17662C17.9394 7.5917 19.7266 8.71608 20.9684 10.3432C22.2102 11.9703 22.8231 13.9909 22.6946 16.0337M22.6946 16.0337L24.2884 14.44M22.6946 16.0337L21.1009 14.44M14.2114 11.25V15.5L17.3989 18.6875" stroke="#7149E1" stroke-width="2" stroke-linecap="round" stroke-linejoin="round"/>
</svg>
