<svg width="24" height="17" viewBox="0 0 24 17" fill="none" xmlns="http://www.w3.org/2000/svg">
<path d="M23.2174 11.6303H22.4348V7.71734C22.4348 6.42268 21.3815 5.36951 20.0869 5.36951H17.5206L16.4905 2.27915C16.1704 1.31897 15.2752 0.673828 14.2631 0.673828C14.1412 0.673828 5.68045 0.673828 5.47823 0.673828C4.45795 0.673828 3.58809 1.32815 3.26503 2.23903H2.34783C1.05323 2.23903 0 3.29226 0 4.58682V7.71734C0 9.01193 1.05323 10.0651 2.34783 10.0651H3.13045V11.6303H2.34783C1.91564 11.6303 1.5652 11.9807 1.5652 12.4129C1.5652 12.8452 1.9156 13.1956 2.34783 13.1956C3.08077 13.1956 3.96028 13.1956 4.69566 13.1956C4.69566 14.9217 6.09998 16.3261 7.82612 16.3261C9.55221 16.3261 10.9566 14.9217 10.9566 13.1956H14.6087C14.6087 14.9217 16.0131 16.3261 17.7392 16.3261C19.4653 16.3261 20.8696 14.9217 20.8696 13.1956C21.6052 13.1956 22.485 13.1956 23.2175 13.1956C23.6497 13.1956 24.0001 12.8452 24.0001 12.4129C24.0001 11.9807 23.6496 11.6303 23.2174 11.6303ZM3.13045 8.49988H2.34783C1.91629 8.49988 1.5652 8.14878 1.5652 7.71727V4.58682C1.5652 4.15525 1.91629 3.80421 2.34783 3.80421H3.13045C3.13045 4.30285 3.13045 8.01635 3.13045 8.49988ZM10.9565 2.23903H12.2609H14.2631C14.6005 2.23903 14.8989 2.45409 15.0056 2.7741L15.8706 5.36943H10.9565V2.23903ZM4.69566 3.02161C4.69566 2.59007 5.04675 2.23898 5.47828 2.23898H9.39134V5.36943H4.69566V3.02161ZM7.82612 14.7608C6.96305 14.7608 6.26091 14.0586 6.26091 13.1956C6.26091 12.3325 6.96305 11.6303 7.82612 11.6303C8.6892 11.6303 9.39134 12.3325 9.39134 13.1956C9.39134 14.0586 8.6892 14.7608 7.82612 14.7608ZM17.7391 14.7608C16.8761 14.7608 16.174 14.0586 16.174 13.1956C16.174 12.3325 16.8761 11.6303 17.7391 11.6303C18.6022 11.6303 19.3043 12.3325 19.3043 13.1956C19.3043 14.0586 18.6022 14.7608 17.7391 14.7608ZM20.8696 11.6303H20.4484C19.9062 10.6956 18.8953 10.0651 17.7391 10.0651C16.583 10.0651 15.572 10.6956 15.0299 11.6303H10.5354C9.99325 10.6956 8.98221 10.0651 7.82612 10.0651C6.66998 10.0651 5.65898 10.6956 5.11683 11.6303H4.69571V9.28249V6.93466C5.97192 6.93466 19.249 6.93466 20.087 6.93466C20.5185 6.93466 20.8696 7.28576 20.8696 7.71734L20.8696 11.6303Z" fill="#050B20"/>
<path d="M13.3049 8.5H11.7396C11.3074 8.5 10.957 8.8504 10.957 9.28261C10.957 9.71482 11.3074 10.0652 11.7396 10.0652H13.3049C13.737 10.0652 14.0875 9.71489 14.0875 9.28261C14.0875 8.8504 13.7371 8.5 13.3049 8.5Z" fill="#050B20"/>
</svg>
