<svg width="40" height="40" viewBox="0 0 40 40" fill="none" xmlns="http://www.w3.org/2000/svg">
<path d="M0 12C0 5.37258 5.37258 0 12 0H28C34.6274 0 40 5.37258 40 12V28C40 34.6274 34.6274 40 28 40H12C5.37258 40 0 34.6274 0 28V12Z" fill="url(#paint0_linear_787_288)"/>
<path d="M11.5767 20.5H27.5767M11.5767 20.5C10.4721 20.5 9.57666 19.6046 9.57666 18.5V17.5C9.57666 16.3954 10.4721 15.5 11.5767 15.5H27.5767C28.6812 15.5 29.5767 16.3954 29.5767 17.5V18.5C29.5767 19.6046 28.6812 20.5 27.5767 20.5M11.5767 20.5L11.5767 27.5C11.5767 28.6046 12.4721 29.5 13.5767 29.5H25.5767C26.6812 29.5 27.5767 28.6046 27.5767 27.5V20.5M19.5767 15.5V29.5M19.5767 15.371C19.5767 15.4422 19.5189 15.5 19.4476 15.5H14.3367C13.3646 15.5 12.5767 14.7064 12.5767 13.7344C12.5767 12.5043 13.5738 11.5 14.8039 11.5H15.7057C17.8436 11.5 19.5767 13.2331 19.5767 15.371ZM19.5767 15.371C19.5767 15.4422 19.6344 15.5 19.7057 15.5H24.8167C25.7887 15.5 26.5767 14.7064 26.5767 13.7344C26.5767 12.5043 25.5795 11.5 24.3494 11.5H23.4476C21.3098 11.5 19.5767 13.2331 19.5767 15.371Z" stroke="#FAFAFA" stroke-width="1.5" stroke-linecap="round" stroke-linejoin="round"/>
<defs>
<linearGradient id="paint0_linear_787_288" x1="20" y1="0" x2="20" y2="40" gradientUnits="userSpaceOnUse">
<stop stop-color="#2133D6"/>
<stop offset="0.65" stop-color="#7D21CF"/>
</linearGradient>
</defs>
</svg>
