<svg width="31" height="31" viewBox="0 0 31 31" fill="none" xmlns="http://www.w3.org/2000/svg">
<rect x="0.333496" y="0.5" width="30" height="30" rx="4" fill="white"/>
<path d="M13.4102 16C13.4102 16.5304 13.6209 17.0391 13.9959 17.4142C14.371 17.7893 14.8797 18 15.4102 18C15.9406 18 16.4493 17.7893 16.8244 17.4142C17.1994 17.0391 17.4102 16.5304 17.4102 16C17.4102 15.4696 17.1994 14.9609 16.8244 14.5858C16.4493 14.2107 15.9406 14 15.4102 14C14.8797 14 14.371 14.2107 13.9959 14.5858C13.6209 14.9609 13.4102 15.4696 13.4102 16Z" stroke="#7149E1" stroke-width="2" stroke-linecap="round" stroke-linejoin="round"/>
<path d="M15.4102 22C15.0822 22 14.7588 21.9833 14.4402 21.95C11.2675 21.618 8.59082 19.6347 6.41016 16C8.81016 12 11.8102 10 15.4102 10C18.8748 10 21.7838 11.8527 24.1372 15.558M23.6102 24.2L25.4102 26M18.4102 22C18.4102 22.7956 18.7262 23.5587 19.2888 24.1213C19.8514 24.6839 20.6145 25 21.4102 25C22.2058 25 22.9689 24.6839 23.5315 24.1213C24.0941 23.5587 24.4102 22.7956 24.4102 22C24.4102 21.2044 24.0941 20.4413 23.5315 19.8787C22.9689 19.3161 22.2058 19 21.4102 19C20.6145 19 19.8514 19.3161 19.2888 19.8787C18.7262 20.4413 18.4102 21.2044 18.4102 22Z" stroke="#7149E1" stroke-width="2" stroke-linecap="round" stroke-linejoin="round"/>
</svg>
