<svg width="24" height="14" viewBox="0 0 24 14" fill="none" xmlns="http://www.w3.org/2000/svg">
<path d="M19.6108 4.35942H18.6602C18.5533 4.36011 18.4473 4.33962 18.3483 4.29916C18.2493 4.25871 18.1593 4.19914 18.0833 4.12382L15.9221 1.9626C15.3891 1.4296 14.7555 1.00789 14.0581 0.721946C13.3606 0.436 12.6133 0.291539 11.8596 0.296961H4.98584C3.9084 0.296961 2.87508 0.724974 2.11322 1.4868C1.35135 2.24868 0.92334 3.28203 0.92334 4.35942V8.42192C0.92334 9.06841 1.18015 9.68843 1.63727 10.1456C2.09439 10.6026 2.71437 10.8594 3.36084 10.8594C3.36084 11.6137 3.66045 12.337 4.19376 12.8703C4.72706 13.4036 5.45038 13.7032 6.20459 13.7032C6.95878 13.7032 7.68212 13.4036 8.21542 12.8703C8.74873 12.337 9.04834 11.6137 9.04834 10.8594H14.8171C14.9069 11.5392 15.2408 12.1632 15.7564 12.6153C16.2721 13.0673 16.9344 13.3165 17.6202 13.3165C18.3059 13.3165 18.9683 13.0673 19.484 12.6153C19.9997 12.1632 20.3335 11.5392 20.4233 10.8594H21.2358C21.8823 10.8594 22.5023 10.6026 22.9594 10.1456C23.4166 9.68843 23.6733 9.06841 23.6733 8.42192C23.6733 7.34453 23.2453 6.31118 22.4835 5.5493C21.7216 4.7875 20.6883 4.35942 19.6108 4.35942ZM11.9002 1.92192C12.4341 1.921 12.9629 2.02531 13.4564 2.2288C13.95 2.43236 14.3985 2.73121 14.7764 3.10821L16.0277 4.35942H5.99334C5.84192 4.36049 5.69322 4.3192 5.56401 4.24028C5.4348 4.16129 5.33022 4.04781 5.26209 3.91261L4.31959 2.0276C4.53508 1.95901 4.7597 1.92338 4.98584 1.92192H11.9002ZM2.54834 8.42192V4.35942C2.54878 3.86603 2.69894 3.38442 2.97897 2.97821L3.79147 4.60321C3.99077 5.01776 4.3033 5.36738 4.69293 5.61178C5.08256 5.85626 5.53339 5.98542 5.99334 5.98442H10.6733V9.23442H8.76395C8.53576 8.74845 8.17382 8.33742 7.72058 8.04959C7.26734 7.76168 6.74153 7.60881 6.20459 7.60881C5.66765 7.60881 5.14181 7.76168 4.68857 8.04959C4.23533 8.33742 3.87344 8.74845 3.64521 9.23442H3.36084C3.14535 9.23442 2.93869 9.14885 2.78632 8.99652C2.63394 8.84412 2.54834 8.63742 2.54834 8.42192ZM6.20459 11.6719C5.96355 11.6719 5.72791 11.6005 5.52749 11.4666C5.32707 11.3326 5.17085 11.1423 5.07861 10.9196C4.98637 10.6969 4.96223 10.4518 5.00926 10.2155C5.05628 9.97902 5.17236 9.76184 5.3428 9.59139C5.51325 9.42101 5.73041 9.30493 5.96682 9.2579C6.20324 9.21087 6.44829 9.23496 6.67098 9.32726C6.89368 9.41948 7.08404 9.57571 7.21794 9.77614C7.35184 9.97649 7.42334 10.2122 7.42334 10.4532C7.42334 10.7765 7.29495 11.0865 7.06638 11.315C6.83782 11.5435 6.52782 11.6719 6.20459 11.6719ZM17.5796 11.6719C17.3385 11.6719 17.1029 11.6005 16.9025 11.4666C16.7021 11.3326 16.5458 11.1423 16.4536 10.9196C16.3614 10.6969 16.3372 10.4518 16.3842 10.2155C16.4313 9.97902 16.5474 9.76184 16.7178 9.59139C16.8883 9.42101 17.1054 9.30493 17.3418 9.2579C17.5783 9.21087 17.8233 9.23496 18.046 9.32726C18.2687 9.41948 18.459 9.57571 18.5929 9.77614C18.7268 9.97649 18.7983 10.2122 18.7983 10.4532C18.7983 10.7765 18.6699 11.0865 18.4414 11.315C18.2128 11.5435 17.9028 11.6719 17.5796 11.6719ZM21.2358 9.23442H20.1389C19.9108 8.74845 19.5488 8.33742 19.0956 8.04959C18.6423 7.76168 18.1165 7.60881 17.5796 7.60881C17.0427 7.60881 16.5168 7.76168 16.0636 8.04959C15.6104 8.33742 15.2484 8.74845 15.0202 9.23442H12.2983V5.98442H19.6108C19.9516 5.98626 20.2881 6.05952 20.5988 6.19946C20.9095 6.33948 21.1874 6.54296 21.4146 6.79692H21.2358C21.0203 6.79692 20.8137 6.88257 20.6613 7.0349C20.5089 7.18731 20.4233 7.39401 20.4233 7.60942C20.4233 7.82492 20.5089 8.03162 20.6613 8.18402C20.8137 8.33635 21.0203 8.42192 21.2358 8.42192H22.0483C22.0483 8.63742 21.9628 8.84412 21.8104 8.99652C21.658 9.14885 21.4513 9.23442 21.2358 9.23442Z" fill="#666666"/>
</svg>
