<svg width="22" height="13" viewBox="0 0 22 13" fill="none" xmlns="http://www.w3.org/2000/svg">
<path d="M17.75 4.2501H16.8725C16.7738 4.25074 16.6759 4.23182 16.5846 4.19448C16.4932 4.15714 16.4101 4.10215 16.34 4.03262L14.345 2.03765C13.853 1.54565 13.2681 1.15637 12.6244 0.89243C11.9805 0.628479 11.2908 0.495131 10.595 0.500136H4.25C3.25544 0.500136 2.30161 0.895225 1.59835 1.59845C0.895089 2.30172 0.5 3.25558 0.5 4.2501V8.0001C0.5 8.59685 0.737056 9.16918 1.15901 9.59116C1.58097 10.0131 2.15326 10.2501 2.75 10.2501C2.75 10.9463 3.02656 11.614 3.51885 12.1063C4.01113 12.5986 4.67881 12.8751 5.375 12.8751C6.07118 12.8751 6.73887 12.5986 7.23115 12.1063C7.72344 11.614 8 10.9463 8 10.2501H13.325C13.4079 10.8776 13.7161 11.4536 14.1921 11.8709C14.6681 12.2881 15.2795 12.5182 15.9125 12.5182C16.5455 12.5182 17.1569 12.2881 17.6329 11.8709C18.1089 11.4536 18.4171 10.8776 18.5 10.2501H19.25C19.8468 10.2501 20.419 10.0131 20.841 9.59116C21.263 9.16918 21.5 8.59685 21.5 8.0001C21.5 7.00558 21.1049 6.05172 20.4016 5.34845C19.6984 4.64525 18.7446 4.2501 17.75 4.2501ZM10.6325 2.0001C11.1253 1.99925 11.6134 2.09554 12.069 2.28337C12.5246 2.47128 12.9386 2.74714 13.2875 3.09514L14.4425 4.2501H5.18C5.04023 4.25109 4.90296 4.21297 4.7837 4.14012C4.66442 4.06721 4.56789 3.96245 4.505 3.83765L3.635 2.09765C3.83391 2.03434 4.04126 2.00144 4.25 2.0001H10.6325ZM2 8.0001V4.2501C2.00041 3.79467 2.13902 3.3501 2.3975 2.97514L3.1475 4.47514C3.33148 4.85779 3.61996 5.18052 3.97962 5.40612C4.33928 5.63179 4.75543 5.75102 5.18 5.7501H9.5V8.7501H7.73748C7.52685 8.30151 7.19275 7.9221 6.77438 7.65641C6.356 7.39064 5.87064 7.24954 5.375 7.24954C4.87936 7.24954 4.39397 7.39064 3.9756 7.65641C3.55723 7.9221 3.22317 8.30151 3.0125 8.7501H2.75C2.55109 8.7501 2.36032 8.67111 2.21967 8.5305C2.07902 8.38982 2 8.19902 2 8.0001ZM5.375 11.0001C5.1525 11.0001 4.93499 10.9342 4.74998 10.8106C4.56498 10.6869 4.42078 10.5112 4.33564 10.3057C4.25049 10.1001 4.22821 9.87387 4.27161 9.65568C4.31503 9.43742 4.42217 9.23695 4.57951 9.07961C4.73684 8.92234 4.9373 8.81518 5.15552 8.77177C5.37375 8.72836 5.59995 8.75059 5.80552 8.83579C6.01109 8.92092 6.1868 9.06514 6.3104 9.25015C6.434 9.43509 6.5 9.65264 6.5 9.87514C6.5 10.1735 6.38148 10.4597 6.17049 10.6706C5.95952 10.8816 5.67337 11.0001 5.375 11.0001ZM15.875 11.0001C15.6525 11.0001 15.435 10.9342 15.25 10.8106C15.065 10.6869 14.9208 10.5112 14.8356 10.3057C14.7505 10.1001 14.7282 9.87387 14.7716 9.65568C14.815 9.43742 14.9222 9.23695 15.0795 9.07961C15.2368 8.92234 15.4373 8.81518 15.6555 8.77177C15.8738 8.72836 16.0999 8.75059 16.3056 8.83579C16.5111 8.92092 16.6868 9.06514 16.8104 9.25015C16.934 9.43509 17 9.65264 17 9.87514C17 10.1735 16.8815 10.4597 16.6705 10.6706C16.4595 10.8816 16.1733 11.0001 15.875 11.0001ZM19.25 8.7501H18.2375C18.0268 8.30151 17.6928 7.9221 17.2744 7.65641C16.856 7.39064 16.3706 7.24954 15.875 7.24954C15.3794 7.24954 14.894 7.39064 14.4756 7.65641C14.0572 7.9221 13.7232 8.30151 13.5125 8.7501H11V5.7501H17.75C18.0645 5.75179 18.3752 5.81942 18.662 5.94859C18.9488 6.07784 19.2053 6.26568 19.415 6.5001H19.25C19.0511 6.5001 18.8604 6.57916 18.7197 6.71977C18.579 6.86045 18.5 7.05125 18.5 7.2501C18.5 7.44902 18.579 7.63982 18.7197 7.7805C18.8604 7.92111 19.0511 8.0001 19.25 8.0001H20C20 8.19902 19.921 8.38982 19.7803 8.5305C19.6396 8.67111 19.4489 8.7501 19.25 8.7501Z" fill="#050B20"/>
</svg>
