<svg width="31" height="31" viewBox="0 0 31 31" fill="none" xmlns="http://www.w3.org/2000/svg">
<rect x="0.666504" y="0.5" width="30" height="30" rx="4" fill="white"/>
<path d="M6.24306 13.5C6.24306 12.9477 6.69078 12.5 7.24306 12.5L10.2431 12.5L10.2431 24.5L7.24306 24.5C6.69077 24.5 6.24306 24.0523 6.24306 23.5L6.24306 13.5Z" stroke="#7149E1" stroke-width="2"/>
<path d="M12.4873 23.9961L10.2431 22.5L10.2431 14.5L11.1345 14.5C11.5083 14.5 11.8509 14.2915 12.0227 13.9594L14.9549 8.29038C15.7379 6.77664 18.0377 7.53366 17.7684 9.2165L17.4283 11.342C17.3311 11.9496 17.8005 12.5 18.4158 12.5L21.7835 12.5C23.0521 12.5 24.0002 13.6659 23.7414 14.9079L22.2406 22.1119C21.9508 23.503 20.7247 24.5 19.3036 24.5L14.1514 24.5C13.5591 24.5 12.9801 24.3247 12.4873 23.9961Z" stroke="#7149E1" stroke-width="2"/>
</svg>
