<svg width="11" height="10" viewBox="0 0 11 10" fill="none" xmlns="http://www.w3.org/2000/svg">
<g clip-path="url(#clip0_894_1460)">
<path d="M6.43338 1.86667C6.43338 1.77778 6.4056 1.70555 6.35005 1.65C6.29449 1.59444 6.22227 1.56667 6.13338 1.56667H3.00005C2.91116 1.56667 2.83894 1.59444 2.78338 1.65C2.72783 1.70555 2.70005 1.77778 2.70005 1.86667V4.36667C2.70005 4.45556 2.72783 4.53333 2.78338 4.6C2.83894 4.66667 2.91116 4.7 3.00005 4.7H6.13338C6.22227 4.7 6.29449 4.66667 6.35005 4.6C6.4056 4.53333 6.43338 4.45556 6.43338 4.36667V1.86667ZM5.80005 4.06667H3.30005V2.2H5.80005V4.06667ZM10.0334 2.2L8.76672 1.6C8.70005 1.55556 8.62227 1.54444 8.53338 1.56667C8.44449 1.58889 8.38338 1.63889 8.35005 1.71667C8.31672 1.79444 8.31116 1.87778 8.33338 1.96667C8.3556 2.05556 8.41116 2.11111 8.50005 2.13333L8.96672 2.4L8.93338 2.5C8.93338 2.7 8.99449 2.87778 9.11672 3.03333C9.23894 3.18889 9.38894 3.3 9.56672 3.36667V7.16667C9.56672 7.25556 9.53338 7.33333 9.46672 7.4C9.40005 7.46667 9.32783 7.5 9.25005 7.5C9.17227 7.5 9.10005 7.46667 9.03338 7.4C8.96672 7.33333 8.93338 7.25556 8.93338 7.16667V4.66667C8.93338 4.31111 8.8056 3.98889 8.55005 3.7C8.29449 3.41111 8.01116 3.23333 7.70005 3.16667V1.23333C7.70005 0.9 7.57783 0.611111 7.33338 0.366666C7.08894 0.122222 6.80005 -9.53674e-07 6.46672 -9.53674e-07H2.70005C2.36672 -9.53674e-07 2.07227 0.122222 1.81672 0.366666C1.56116 0.611111 1.43338 0.9 1.43338 1.23333V8.23333L1.00005 8.46667C0.866715 8.53333 0.800049 8.62222 0.800049 8.73333V9.66667C0.800049 9.75556 0.833382 9.83333 0.900049 9.9C0.966715 9.96667 1.04449 10 1.13338 10H8.00005C8.08894 10 8.16116 9.96667 8.21672 9.9C8.27227 9.83333 8.30005 9.75556 8.30005 9.66667V8.73333C8.30005 8.62222 8.24449 8.53333 8.13338 8.46667L7.70005 8.23333V3.8C7.8556 3.86667 7.99449 3.98333 8.11672 4.15C8.23894 4.31667 8.30005 4.48889 8.30005 4.66667V7.16667C8.30005 7.43333 8.39449 7.66111 8.58338 7.85C8.77227 8.03889 8.99449 8.13333 9.25005 8.13333C9.5056 8.13333 9.72783 8.03889 9.91672 7.85C10.1056 7.66111 10.2 7.43333 10.2 7.16667V2.5C10.2 2.36667 10.1445 2.26667 10.0334 2.2ZM7.70005 9.36667H1.43338V8.93333L1.90005 8.7C2.01116 8.65556 2.06672 8.56667 2.06672 8.43333V1.23333C2.06672 1.07778 2.12783 0.938889 2.25005 0.816667C2.37227 0.694444 2.52227 0.633333 2.70005 0.633333H6.46672C6.62227 0.633333 6.76116 0.694444 6.88338 0.816667C7.0056 0.938889 7.06672 1.07778 7.06672 1.23333V8.43333C7.06672 8.56667 7.12227 8.65556 7.23338 8.7L7.70005 8.93333V9.36667Z" fill="#666666"/>
</g>
<defs>
<clipPath id="clip0_894_1460">
<rect width="10" height="10" fill="white" transform="matrix(1 0 0 -1 0.5 10)"/>
</clipPath>
</defs>
</svg>
