<svg width="11" height="14" viewBox="0 0 11 14" fill="none" xmlns="http://www.w3.org/2000/svg">
<path d="M10.1407 12.6875C10.1407 12.7745 10.1061 12.858 10.0445 12.9195C9.98301 12.9811 9.89955 13.0156 9.81253 13.0156H4.12503C4.038 13.0156 3.95454 12.9811 3.89301 12.9195C3.83147 12.858 3.7969 12.7745 3.7969 12.6875C3.7969 12.6005 3.83147 12.517 3.89301 12.4555C3.95454 12.3939 4.038 12.3594 4.12503 12.3594H9.81253C9.89955 12.3594 9.98301 12.3939 10.0445 12.4555C10.1061 12.517 10.1407 12.6005 10.1407 12.6875ZM10.1407 8.75V10.5C10.1407 10.7031 10.06 10.8978 9.9164 11.0414C9.77282 11.185 9.57808 11.2656 9.37503 11.2656H4.24042C4.09807 11.2661 3.95844 11.2267 3.83734 11.1519C3.71623 11.0771 3.61849 10.9698 3.55518 10.8423L0.377292 4.4986C0.324401 4.39223 0.296875 4.27505 0.296875 4.15626C0.296875 4.03746 0.324401 3.92028 0.377292 3.81391L1.58698 1.40766C1.67693 1.22806 1.83387 1.091 2.02394 1.02604C2.21402 0.961076 2.42201 0.973415 2.60307 1.0604L4.44823 1.83915L4.46682 1.84844C4.55677 1.89336 4.637 1.95556 4.70291 2.03149C4.76882 2.10741 4.81913 2.19557 4.85097 2.29094C4.88281 2.38631 4.89556 2.48702 4.88848 2.58731C4.8814 2.68761 4.85464 2.78552 4.80971 2.87547L4.80479 2.88422L4.0255 4.32907C4.01841 4.34383 4.01474 4.36 4.01474 4.37637C4.01474 4.39275 4.01841 4.40891 4.0255 4.42368L5.76346 7.92368C5.77263 7.94161 5.78657 7.95667 5.80374 7.96719C5.82092 7.97771 5.84067 7.98328 5.86081 7.98329H9.37503C9.47566 7.98329 9.57531 8.00313 9.66827 8.04167C9.76123 8.08021 9.84568 8.13671 9.91679 8.20792C9.9879 8.27913 10.0443 8.36366 10.0827 8.45668C10.1211 8.54969 10.1408 8.64937 10.1407 8.75ZM9.4844 8.75C9.4844 8.721 9.47288 8.69318 9.45237 8.67266C9.43186 8.65215 9.40403 8.64063 9.37503 8.64063H5.86245C5.7202 8.64098 5.58068 8.60153 5.45968 8.52673C5.33868 8.45192 5.24103 8.34476 5.17776 8.21735L3.43979 4.71735C3.38683 4.61119 3.35926 4.49418 3.35926 4.37555C3.35926 4.25692 3.38683 4.13991 3.43979 4.03376L3.44471 4.02446L4.22401 2.57961C4.23564 2.55435 4.2372 2.5256 4.22839 2.49922C4.22003 2.47391 4.20273 2.45252 4.17971 2.43907L2.33948 1.66086L2.32034 1.65211C2.30522 1.64458 2.28856 1.64065 2.27167 1.64063C2.25138 1.64059 2.23147 1.6462 2.21419 1.65682C2.1969 1.66744 2.18291 1.68267 2.17378 1.70079L0.964089 4.10704C0.956573 4.12216 0.952662 4.13882 0.952662 4.15571C0.952662 4.1726 0.956573 4.18926 0.964089 4.20438L4.14253 10.5481C4.15158 10.5664 4.16554 10.5817 4.18283 10.5924C4.20013 10.6031 4.22007 10.6088 4.24042 10.6088H9.37503C9.40403 10.6088 9.43186 10.5973 9.45237 10.5768C9.47288 10.5563 9.4844 10.5285 9.4844 10.4995V8.75Z" fill="#666666"/>
</svg>
