<svg width="30" height="31" viewBox="0 0 30 31" fill="none" xmlns="http://www.w3.org/2000/svg">
<rect y="0.5" width="30" height="30" rx="4" fill="white"/>
<path d="M11.9254 15L13.9254 17L18.0767 12.8488M14.3019 6.57852L8.30194 8.2928C7.87264 8.41546 7.57666 8.80784 7.57666 9.25432L7.57666 14.3538C7.57666 17.5834 9.13632 20.6141 11.7643 22.4912L13.9954 24.0849C14.3431 24.3332 14.8102 24.3332 15.1579 24.0849L17.389 22.4912C20.017 20.6141 21.5767 17.5834 21.5767 14.3538V9.25432C21.5767 8.80784 21.2807 8.41546 20.8514 8.2928L14.8514 6.57852C14.6718 6.52721 14.4815 6.52721 14.3019 6.57852Z" stroke="#7149E1" stroke-width="2" stroke-linecap="round" stroke-linejoin="round"/>
</svg>
