<svg width="27" height="26" viewBox="0 0 27 26" fill="none" xmlns="http://www.w3.org/2000/svg">
<mask id="mask0_856_1061" style="mask-type:luminance" maskUnits="userSpaceOnUse" x="0" y="0" width="27" height="26">
<path d="M26.0518 0.371399H0.794678V25.6285H26.0518V0.371399Z" fill="white"/>
</mask>
<g mask="url(#mask0_856_1061)">
<path d="M23.6442 11.9505L19.2842 11.2235C19.0293 10.8094 18.5225 10.0604 17.7857 9.30995C16.315 7.81212 14.6217 7.02045 12.8888 7.02045H5.78853C4.6352 7.02045 3.56586 7.64403 2.99782 8.64784L1.04123 12.1057C1.03807 12.1113 1.03571 12.1171 1.0327 12.1227C0.881351 12.3935 0.794678 12.7053 0.794678 13.037V16.6807C0.794678 17.0893 1.12598 17.4205 1.53463 17.4205H3.90452C4.25234 18.3307 5.13891 18.9795 6.17548 18.9795C7.21206 18.9795 8.0986 18.3307 8.44648 17.4205H17.6367C17.9845 18.3307 18.8711 18.9795 19.9076 18.9795C20.9442 18.9795 21.8308 18.3307 22.1786 17.4205H25.3119C25.7205 17.4205 26.0518 17.0893 26.0518 16.6807V14.7217C26.0518 13.3336 25.0175 12.1443 23.6442 11.9505ZM17.4329 11.1563H12.1024V8.50038H12.8888C14.9862 8.50038 16.5702 10.0509 17.4329 11.1563ZM7.16372 8.50038H10.6226V11.1563H7.16372V8.50038ZM4.28584 9.37666C4.57442 8.86669 5.10334 8.53931 5.68381 8.50395V11.1563H3.27881L4.28584 9.37666ZM6.17548 17.4996C5.65244 17.4996 5.22691 17.0812 5.22691 16.5668C5.22691 16.0526 5.65244 15.6341 6.17548 15.6341C6.69853 15.6341 7.12406 16.0526 7.12406 16.5668C7.12406 17.0812 6.69853 17.4996 6.17548 17.4996ZM19.9076 17.4996C19.3845 17.4996 18.959 17.0812 18.959 16.5668C18.959 16.0526 19.3846 15.6341 19.9076 15.6341C20.4307 15.6341 20.8562 16.0526 20.8562 16.5668C20.8562 17.0812 20.4307 17.4996 19.9076 17.4996ZM22.2526 15.9406C21.9744 14.913 21.0287 14.1542 19.9076 14.1542C18.7865 14.1542 17.8409 14.913 17.5625 15.9406H8.52047C8.24219 14.913 7.29656 14.1542 6.17548 14.1542C5.05441 14.1542 4.10879 14.913 3.83042 15.9406H2.27459V13.037C2.27459 12.816 2.45435 12.6362 2.67535 12.6362H18.7592L23.4106 13.4119C23.4177 13.4131 23.4249 13.4142 23.4321 13.4152C23.5579 13.4324 23.6776 13.4676 23.7892 13.5175C23.4796 13.606 23.2527 13.8905 23.2527 14.2285C23.2527 14.6371 23.584 14.9684 23.9927 14.9684H24.5719V15.9407L22.2526 15.9406Z" fill="#666666"/>
</g>
</svg>
