<svg width="24" height="13" viewBox="0 0 24 13" fill="none" xmlns="http://www.w3.org/2000/svg">
<path d="M21.7083 5.50303L17.5654 4.81219C17.3231 4.41873 16.8416 3.70699 16.1414 2.9939C14.7439 1.57063 13.1349 0.818359 11.4883 0.818359H4.74139C3.64546 0.818359 2.62935 1.41091 2.08958 2.36475L0.230375 5.65049C0.227375 5.65579 0.225125 5.66129 0.222266 5.66666C0.0784533 5.92402 -0.00390625 6.22021 -0.00390625 6.53546V9.99774C-0.00390625 10.386 0.310906 10.7008 0.699216 10.7008H2.95114C3.28166 11.5656 4.12409 12.1822 5.10908 12.1822C6.09406 12.1822 6.93647 11.5656 7.26704 10.7008H15.9999C16.3304 11.5656 17.1728 12.1822 18.1577 12.1822C19.1427 12.1822 19.9851 11.5656 20.3156 10.7008H23.293C23.6813 10.7008 23.9961 10.386 23.9961 9.99774V8.13633C23.9961 6.81732 23.0133 5.6872 21.7083 5.50303ZM15.8062 4.74837H10.741V2.22463H11.4883C13.4813 2.22463 14.9864 3.69802 15.8062 4.74837ZM6.04812 2.22463H9.33485V4.74837H6.04812V2.22463ZM3.31349 3.05729C3.5877 2.5727 4.0903 2.26162 4.64187 2.22802V4.74837H2.35658L3.31349 3.05729ZM5.10908 10.7759C4.61206 10.7759 4.20772 10.3784 4.20772 9.8896C4.20772 9.40092 4.61206 9.00329 5.10908 9.00329C5.60609 9.00329 6.01044 9.40092 6.01044 9.8896C6.01044 10.3784 5.60609 10.7759 5.10908 10.7759ZM18.1577 10.7759C17.6607 10.7759 17.2563 10.3784 17.2563 9.8896C17.2563 9.40092 17.6607 9.00329 18.1577 9.00329C18.6548 9.00329 19.0591 9.40092 19.0591 9.8896C19.0591 10.3784 18.6548 10.7759 18.1577 10.7759ZM20.386 9.29454C20.1216 8.31809 19.223 7.59703 18.1577 7.59703C17.0924 7.59703 16.1939 8.31809 15.9293 9.29454H7.33734C7.07292 8.31809 6.17436 7.59703 5.10908 7.59703C4.0438 7.59703 3.14525 8.31809 2.88073 9.29454H1.40235V6.53546C1.40235 6.32546 1.57316 6.15463 1.78316 6.15463H17.0664L21.4863 6.89171C21.4931 6.89284 21.4999 6.8939 21.5067 6.89482C21.6263 6.9112 21.7401 6.94458 21.846 6.99202C21.5519 7.07616 21.3363 7.34644 21.3363 7.66762C21.3363 8.05593 21.6512 8.37075 22.0395 8.37075H22.5898V9.29461L20.386 9.29454Z" fill="#050B20"/>
</svg>
