<svg width="27" height="26" viewBox="0 0 27 26" fill="none" xmlns="http://www.w3.org/2000/svg">
<mask id="mask0_856_1053" style="mask-type:luminance" maskUnits="userSpaceOnUse" x="0" y="0" width="27" height="26">
<path d="M26.4233 0H0.42334V26H26.4233V0Z" fill="white"/>
</mask>
<g mask="url(#mask0_856_1053)">
<path d="M25.5755 16.3913H24.7277V12.1523C24.7277 10.7497 23.5867 9.60877 22.1842 9.60877H19.404L18.2881 6.26089C17.9412 5.22069 16.9715 4.52179 15.8751 4.52179C15.743 4.52179 6.57717 4.52179 6.35809 4.52179C5.25279 4.52179 4.31044 5.23064 3.96046 6.21743H2.96682C1.56434 6.21743 0.42334 7.35843 0.42334 8.76087V12.1523C0.42334 13.5547 1.56434 14.6957 2.96682 14.6957H3.81467V16.3913H2.96682C2.49861 16.3913 2.11898 16.7709 2.11898 17.2392C2.11898 17.7075 2.49857 18.0871 2.96682 18.0871C3.76084 18.0871 4.71365 18.0871 5.5103 18.0871C5.5103 19.957 7.03165 21.4784 8.90163 21.4784C10.7716 21.4784 12.293 19.957 12.293 18.0871H16.2495C16.2495 19.957 17.7708 21.4784 19.6408 21.4784C21.5108 21.4784 23.0321 19.957 23.0321 18.0871C23.829 18.0871 24.7821 18.0871 25.5756 18.0871C26.0438 18.0871 26.4234 17.7075 26.4234 17.2392C26.4234 16.7709 26.0437 16.3913 25.5755 16.3913ZM3.81467 13H2.96682C2.49933 13 2.11898 12.6197 2.11898 12.1522V8.76087C2.11898 8.29333 2.49933 7.91304 2.96682 7.91304H3.81467C3.81467 8.45323 3.81467 12.4762 3.81467 13ZM12.2929 6.21743H13.706H15.8751C16.2406 6.21743 16.5638 6.45041 16.6794 6.79709L17.6165 9.6087H12.2929V6.21743ZM5.5103 7.06522C5.5103 6.59772 5.89065 6.21737 6.35815 6.21737H10.5973V9.6087H5.5103V7.06522ZM8.90163 19.7827C7.96664 19.7827 7.20599 19.022 7.20599 18.087C7.20599 17.152 7.96664 16.3913 8.90163 16.3913C9.83664 16.3913 10.5973 17.152 10.5973 18.087C10.5973 19.022 9.83664 19.7827 8.90163 19.7827ZM19.6407 19.7827C18.7058 19.7827 17.9451 19.022 17.9451 18.087C17.9451 17.152 18.7058 16.3913 19.6407 16.3913C20.5757 16.3913 21.3364 17.152 21.3364 18.087C21.3364 19.022 20.5757 19.7827 19.6407 19.7827ZM23.032 16.3913H22.5758C21.9884 15.3787 20.8932 14.6957 19.6407 14.6957C18.3883 14.6957 17.2931 15.3787 16.7057 16.3913H11.8367C11.2494 15.3787 10.1541 14.6957 8.90163 14.6957C7.64915 14.6957 6.5539 15.3787 5.96657 16.3913H5.51035V13.8478V11.3044C6.89292 11.3044 21.2764 11.3044 22.1843 11.3044C22.6517 11.3044 23.0321 11.6847 23.0321 12.1523L23.032 16.3913Z" fill="#666666"/>
<path d="M14.8367 13H13.141C12.6728 13 12.2932 13.3796 12.2932 13.8478C12.2932 14.3161 12.6728 14.6957 13.141 14.6957H14.8367C15.3049 14.6957 15.6845 14.3161 15.6845 13.8478C15.6845 13.3796 15.3049 13 14.8367 13Z" fill="#666666"/>
</g>
</svg>
