<svg width="34" height="23" viewBox="0 0 34 23" fill="none" xmlns="http://www.w3.org/2000/svg">
<path d="M29.0829 18.0434H29.586C30.9702 18.0434 32.1027 16.9108 32.1027 15.5266V11.4999C32.1027 10.1157 31.1967 8.98322 30.0893 8.98322H28.076L26.0473 4.24968C25.5022 2.9773 23.9234 1.93652 22.5393 1.93652H4.41906C3.03486 1.93652 1.90234 3.06898 1.90234 4.45305V15.5266C1.90234 16.9108 3.03486 18.0434 4.41906 18.0434H4.92257" stroke="#050B20" stroke-width="2" stroke-miterlimit="10" stroke-linecap="round" stroke-linejoin="round"/>
<path d="M10.9619 18.0435C10.9619 19.7114 9.60976 21.0635 7.94191 21.0635C6.27399 21.0635 4.92188 19.7114 4.92188 18.0435C4.92188 16.3755 6.27399 15.0234 7.94191 15.0234C9.60976 15.0234 10.9619 16.3755 10.9619 18.0435Z" stroke="#050B20" stroke-width="2" stroke-miterlimit="10" stroke-linecap="round" stroke-linejoin="round"/>
<path d="M29.0828 18.0435C29.0828 19.7114 27.7306 21.0635 26.0629 21.0635C24.3952 21.0635 23.043 19.7114 23.043 18.0435C23.043 16.3755 24.3952 15.0234 26.0629 15.0234C27.7306 15.0234 29.0828 16.3755 29.0828 18.0435Z" stroke="#050B20" stroke-width="2" stroke-miterlimit="10" stroke-linecap="round" stroke-linejoin="round"/>
<path d="M10.9609 18.043H23.0412" stroke="#050B20" stroke-width="2" stroke-miterlimit="10" stroke-linecap="round" stroke-linejoin="round"/>
<path d="M17.0039 18.0434V1.93652" stroke="#050B20" stroke-width="2" stroke-miterlimit="10" stroke-linecap="round" stroke-linejoin="round"/>
<path d="M28.0752 8.98334H22.0352V1.93652" stroke="#050B20" stroke-width="2" stroke-miterlimit="10" stroke-linecap="round" stroke-linejoin="round"/>
<path d="M12.9754 9.99023H11.9688" stroke="#050B20" stroke-width="2" stroke-miterlimit="10" stroke-linecap="round" stroke-linejoin="round"/>
<path d="M32.1038 13.0098H30.5938" stroke="#050B20" stroke-width="2" stroke-miterlimit="10" stroke-linecap="round" stroke-linejoin="round"/>
</svg>
