<svg width="40" height="18" viewBox="0 0 40 18" fill="none" xmlns="http://www.w3.org/2000/svg">
<path d="M39.0339 16.3013L34.6239 8.85375L38.9889 1.71C39.0925 1.53977 39.1491 1.34505 39.1528 1.14579C39.1565 0.94652 39.1071 0.749851 39.0099 0.575901C38.9126 0.401952 38.7709 0.256966 38.5992 0.155777C38.4275 0.0545885 38.232 0.000829289 38.0327 0H2.91016C2.31342 0 1.74112 0.237053 1.31917 0.65901C0.897209 1.08097 0.660156 1.65326 0.660156 2.25L0.660156 15.75C0.660156 16.3467 0.897209 16.919 1.31917 17.341C1.74112 17.7629 2.31342 18 2.91016 18H38.0664C38.265 18 38.46 17.9474 38.6317 17.8476C38.8033 17.7478 38.9455 17.6043 39.0438 17.4318C39.142 17.2592 39.1929 17.0637 39.1912 16.8652C39.1894 16.6666 39.1352 16.4721 39.0339 16.3013ZM12.4839 12.5775H11.2239L7.55641 7.695V12.5888H6.28516V5.625H7.55641L11.2352 10.5188V5.625H12.4952L12.4839 12.5775ZM19.6052 6.75H15.6339V8.42625H19.2339V9.55125H15.6339V11.3625H19.6052V12.4875H14.3627V5.625H19.5939L19.6052 6.75ZM28.9314 12.555H27.6602L25.9164 7.39125L24.1727 12.5775H22.9127L20.6627 5.625H22.0352L23.5202 10.6088L25.2302 5.625H26.6027L28.2452 10.6088L29.7414 5.625H31.1252L28.9314 12.555Z" fill="#BD1C98"/>
</svg>
