<svg width="31" height="31" viewBox="0 0 31 31" fill="none" xmlns="http://www.w3.org/2000/svg">
<path d="M28.3552 19.0168L25.7647 16.7098C25.0147 16.0423 25.0147 14.9488 25.7647 14.2813L28.3552 11.9728C29.1052 11.3053 28.9057 10.6842 27.9112 10.5868L24.4762 10.2613C23.4832 10.1683 22.9462 9.31175 23.2897 8.36225L25.1122 3.28775C25.4542 2.33525 25.0357 1.99025 24.1837 2.51675L20.1322 5.02175C19.9314 5.14705 19.7072 5.23007 19.4732 5.26572C19.2392 5.30137 19.0004 5.28891 18.7714 5.22909C18.5423 5.16928 18.328 5.06337 18.1413 4.91784C17.9546 4.77232 17.7996 4.59024 17.6857 4.38275L16.2187 1.76375C15.7252 0.881746 14.9107 0.878746 14.4082 1.75175L13.0447 4.12175C12.5392 4.99925 11.3827 5.37125 10.4752 4.95575L8.07521 3.85475C7.16321 3.43475 6.46571 3.91775 6.51971 4.92875L6.64871 7.35125C6.70421 8.36225 5.95721 9.40175 4.9927 9.66275L2.6752 10.2837C1.7122 10.5448 1.5352 11.3038 2.2852 11.9713L4.8757 14.2798C5.62571 14.9473 5.62571 16.0408 4.8757 16.7083L2.2852 19.0168C1.5352 19.6843 1.7332 20.3323 2.7247 20.4523L5.86721 20.8333C6.85871 20.9533 7.41071 21.8383 7.09421 22.7998L5.48321 27.6868C5.1667 28.6483 5.61821 29.0203 6.48521 28.5193L10.1797 26.3803C10.6106 26.1412 11.1152 26.0715 11.5948 26.1847C12.0744 26.2979 12.4946 26.5858 12.7732 26.9923L14.3062 29.3008C14.8642 30.1393 15.7027 30.0943 16.1662 29.1988L17.5147 26.5993C17.7392 26.168 18.1233 25.8415 18.5851 25.6893C19.0469 25.5372 19.5498 25.5714 19.9867 25.7848L22.5877 27.0853C23.4847 27.5308 24.1732 27.0703 24.1192 26.0623L23.9887 23.6368C23.9362 22.6258 24.6802 21.5893 25.6477 21.3283L27.9622 20.7043C28.9282 20.4433 29.1052 19.6843 28.3552 19.0168ZM16.8202 21.5008H13.8202V18.5008H16.8202V21.5008ZM16.8202 17.0008H13.8202V9.50075H16.8202V17.0008Z" fill="#F36517"/>
</svg>
