<svg width="40" height="40" viewBox="0 0 40 40" fill="none" xmlns="http://www.w3.org/2000/svg">
<path d="M12 0.5H28C34.3513 0.5 39.5 5.64873 39.5 12V28C39.5 34.3513 34.3513 39.5 28 39.5H12C5.64873 39.5 0.5 34.3513 0.5 28V12C0.5 5.64873 5.64873 0.5 12 0.5Z" fill="white"/>
<path d="M12 0.5H28C34.3513 0.5 39.5 5.64873 39.5 12V28C39.5 34.3513 34.3513 39.5 28 39.5H12C5.64873 39.5 0.5 34.3513 0.5 28V12C0.5 5.64873 5.64873 0.5 12 0.5Z" stroke="#E8E8E8"/>
<path d="M11 20H20V21.5H11V20ZM9.5 16.25H17V17.75H9.5V16.25Z" fill="url(#paint0_linear_109_10015)"/>
<path d="M30.6949 19.2488L28.1131 13.2245C28.0467 13.0697 27.9364 12.9378 27.7959 12.8451C27.6553 12.7524 27.4906 12.703 27.3222 12.7029H24.7403V10.9817C24.7403 10.7535 24.6497 10.5346 24.4883 10.3732C24.3269 10.2118 24.108 10.1211 23.8797 10.1211H10.1098V11.8423H23.0191V22.6482C22.6272 22.8762 22.2842 23.1794 22.0098 23.5404C21.7353 23.9013 21.5349 24.313 21.4201 24.7516H16.012C15.8025 23.9403 15.3043 23.2333 14.6109 22.763C13.9174 22.2928 13.0762 22.0916 12.245 22.1972C11.4138 22.3027 10.6497 22.7078 10.0958 23.3365C9.54191 23.9652 9.23633 24.7743 9.23633 25.6122C9.23633 26.4501 9.54191 27.2592 10.0958 27.8879C10.6497 28.5166 11.4138 28.9217 12.245 29.0272C13.0762 29.1328 13.9174 28.9316 14.6109 28.4614C15.3043 27.9911 15.8025 27.2841 16.012 26.4728H21.4201C21.6073 27.2114 22.0354 27.8665 22.6368 28.3345C23.2381 28.8024 23.9784 29.0565 24.7403 29.0565C25.5023 29.0565 26.2425 28.8024 26.8439 28.3345C27.4452 27.8665 27.8734 27.2114 28.0606 26.4728H29.904C30.1323 26.4728 30.3512 26.3821 30.5126 26.2207C30.674 26.0594 30.7646 25.8404 30.7646 25.6122V19.5879C30.7646 19.4713 30.7409 19.3559 30.6949 19.2488ZM12.6917 27.3334C12.3513 27.3334 12.0185 27.2325 11.7354 27.0434C11.4524 26.8542 11.2318 26.5854 11.1015 26.2709C10.9712 25.9564 10.9371 25.6103 11.0035 25.2764C11.0699 24.9425 11.2339 24.6358 11.4746 24.3951C11.7153 24.1544 12.022 23.9905 12.3559 23.924C12.6898 23.8576 13.0359 23.8917 13.3504 24.022C13.6649 24.1523 13.9337 24.3729 14.1228 24.6559C14.312 24.939 14.4129 25.2718 14.4129 25.6122C14.4129 26.0687 14.2316 26.5065 13.9088 26.8293C13.586 27.1521 13.1482 27.3334 12.6917 27.3334ZM24.7403 14.4242H26.7542L28.5993 18.7273H24.7403V14.4242ZM24.7403 27.3334C24.3999 27.3334 24.0671 27.2325 23.7841 27.0434C23.501 26.8542 23.2804 26.5854 23.1501 26.2709C23.0198 25.9564 22.9858 25.6103 23.0522 25.2764C23.1186 24.9425 23.2825 24.6358 23.5232 24.3951C23.764 24.1544 24.0706 23.9905 24.4045 23.924C24.7384 23.8576 25.0845 23.8917 25.399 24.022C25.7135 24.1523 25.9823 24.3729 26.1715 24.6559C26.3606 24.939 26.4616 25.2718 26.4616 25.6122C26.4616 26.0687 26.2802 26.5065 25.9574 26.8293C25.6346 27.1521 25.1968 27.3334 24.7403 27.3334ZM29.0434 24.7516H28.0606C27.871 24.0144 27.4422 23.361 26.8413 22.8937C26.2404 22.4265 25.5015 22.1718 24.7403 22.1697V20.4485H29.0434V24.7516Z" fill="url(#paint1_linear_109_10015)"/>
<defs>
<linearGradient id="paint0_linear_109_10015" x1="14.75" y1="16.25" x2="14.75" y2="21.5" gradientUnits="userSpaceOnUse">
<stop stop-color="#2133D6"/>
<stop offset="0.65" stop-color="#7D21CF"/>
</linearGradient>
<linearGradient id="paint1_linear_109_10015" x1="20.0005" y1="10.1211" x2="20.0005" y2="29.0565" gradientUnits="userSpaceOnUse">
<stop stop-color="#2133D6"/>
<stop offset="0.65" stop-color="#7D21CF"/>
</linearGradient>
</defs>
</svg>
