<svg width="40" height="40" viewBox="0 0 40 40" fill="none" xmlns="http://www.w3.org/2000/svg">
<path d="M12 0.5H28C34.3513 0.5 39.5 5.64873 39.5 12V28C39.5 34.3513 34.3513 39.5 28 39.5H12C5.64873 39.5 0.5 34.3513 0.5 28V12C0.5 5.64873 5.64873 0.5 12 0.5Z" fill="white"/>
<path d="M12 0.5H28C34.3513 0.5 39.5 5.64873 39.5 12V28C39.5 34.3513 34.3513 39.5 28 39.5H12C5.64873 39.5 0.5 34.3513 0.5 28V12C0.5 5.64873 5.64873 0.5 12 0.5Z" stroke="#E8E8E8"/>
<path d="M25.943 19.5692H18.8055C19.329 19.0743 19.7881 18.5245 20.1829 17.9196H24.178L22.6769 15.1056C22.433 14.6481 22.0517 14.2789 21.5866 14.0499C21.6543 13.4706 21.667 12.8863 21.6245 12.3047C22.157 12.4567 22.6535 12.7144 23.0843 13.0624C23.515 13.4104 23.8713 13.8416 24.1318 14.3303L26.0057 17.8405L26.2267 17.9196H26.3141V17.951L28.8049 18.8368C29.6067 19.122 30.3005 19.6484 30.7914 20.3435C31.2822 21.0387 31.5459 21.8687 31.5464 22.7197V23.2789C31.5464 24.4501 30.8503 25.4563 29.8474 25.9099C29.7177 26.6528 29.3374 27.3289 28.7699 27.8255C28.2024 28.3221 27.4818 28.6092 26.7283 28.6391C25.9747 28.669 25.2337 28.4399 24.6286 27.9898C24.0235 27.5397 23.5908 26.8959 23.4027 26.1656H16.5968C16.4087 26.8959 15.9761 27.5397 15.3709 27.9898C14.7658 28.4399 14.0248 28.669 13.2713 28.6391C12.5177 28.6092 11.7972 28.3221 11.2296 27.8255C10.6621 27.3289 10.2818 26.6528 10.1521 25.9099C9.64605 25.6815 9.2166 25.3119 8.91525 24.8456C8.6139 24.3792 8.45345 23.8358 8.45312 23.2806V21.443C8.45312 21.3155 8.45862 21.189 8.46962 21.0636C8.98867 21.3276 9.53301 21.5409 10.1026 21.7036V23.2806C10.1026 23.5693 10.2016 23.8348 10.3666 24.046C10.6368 23.4118 11.0988 22.8781 11.6879 22.52C12.2769 22.1619 12.9633 21.9974 13.6507 22.0494C14.3381 22.1015 14.9919 22.3675 15.5203 22.8102C16.0487 23.253 16.4252 23.8501 16.5968 24.5177H23.4027C23.5747 23.8506 23.9513 23.2541 24.4795 22.8119C25.0077 22.3696 25.6611 22.1039 26.3481 22.0518C27.035 21.9998 27.7211 22.1641 28.3099 22.5218C28.8987 22.8794 29.3608 23.4124 29.6313 24.046C29.8032 23.8279 29.8968 23.5583 29.8969 23.2806V22.7214C29.8969 21.6756 29.2371 20.742 28.2523 20.3906L25.943 19.5692ZM11.7522 25.3425C11.7522 25.78 11.926 26.1995 12.2353 26.5089C12.5446 26.8182 12.9642 26.992 13.4017 26.992C13.8392 26.992 14.2587 26.8182 14.5681 26.5089C14.8774 26.1995 15.0512 25.78 15.0512 25.3425C15.0512 24.905 14.8774 24.4854 14.5681 24.1761C14.2587 23.8668 13.8392 23.693 13.4017 23.693C12.9642 23.693 12.5446 23.8668 12.2353 24.1761C11.926 24.4854 11.7522 24.905 11.7522 25.3425ZM26.5978 23.693C26.1604 23.693 25.7408 23.8668 25.4314 24.1761C25.1221 24.4854 24.9483 24.905 24.9483 25.3425C24.9483 25.78 25.1221 26.1995 25.4314 26.5089C25.7408 26.8182 26.1604 26.992 26.5978 26.992C27.0353 26.992 27.4549 26.8182 27.7642 26.5089C28.0736 26.1995 28.2473 25.78 28.2473 25.3425C28.2473 24.905 28.0736 24.4854 27.7642 24.1761C27.4549 23.8668 27.0353 23.693 26.5978 23.693Z" fill="url(#paint0_linear_109_10023)"/>
<path d="M9.18848 18.1014H16.7733C17.6673 18.1014 18.5247 17.7462 19.1569 17.1141C19.7891 16.4819 20.1443 15.6244 20.1443 14.7304C20.1443 13.8363 19.7891 12.9789 19.1569 12.3467C18.5247 11.7145 17.6673 11.3594 16.7733 11.3594H14.245" stroke="url(#paint1_linear_109_10023)" stroke-width="1.5" stroke-linecap="round" stroke-linejoin="round"/>
<path d="M11.7167 15.5723L9.18848 18.1005L11.7167 20.6288" stroke="url(#paint2_linear_109_10023)" stroke-width="1.5" stroke-linecap="round" stroke-linejoin="round"/>
<defs>
<linearGradient id="paint0_linear_109_10023" x1="19.9998" y1="12.3047" x2="19.9998" y2="28.6417" gradientUnits="userSpaceOnUse">
<stop stop-color="#2133D6"/>
<stop offset="0.65" stop-color="#7D21CF"/>
</linearGradient>
<linearGradient id="paint1_linear_109_10023" x1="14.6664" y1="11.3594" x2="14.6664" y2="18.1014" gradientUnits="userSpaceOnUse">
<stop stop-color="#2133D6"/>
<stop offset="0.65" stop-color="#7D21CF"/>
</linearGradient>
<linearGradient id="paint2_linear_109_10023" x1="10.4526" y1="15.5723" x2="10.4526" y2="20.6288" gradientUnits="userSpaceOnUse">
<stop stop-color="#2133D6"/>
<stop offset="0.65" stop-color="#7D21CF"/>
</linearGradient>
</defs>
</svg>
