<svg width="40" height="40" viewBox="0 0 40 40" fill="none" xmlns="http://www.w3.org/2000/svg">
<path d="M12 0.5H28C34.3513 0.5 39.5 5.64873 39.5 12V28C39.5 34.3513 34.3513 39.5 28 39.5H12C5.64873 39.5 0.5 34.3513 0.5 28V12C0.5 5.64873 5.64873 0.5 12 0.5Z" fill="white"/>
<path d="M12 0.5H28C34.3513 0.5 39.5 5.64873 39.5 12V28C39.5 34.3513 34.3513 39.5 28 39.5H12C5.64873 39.5 0.5 34.3513 0.5 28V12C0.5 5.64873 5.64873 0.5 12 0.5Z" stroke="#E8E8E8"/>
<path d="M18.1299 22.2997H19.4999V26.7617C19.4999 27.1797 19.4999 27.5357 19.5269 27.7907C19.5409 27.9187 19.5659 28.0697 19.6269 28.2047C19.6677 28.3017 19.7307 28.3878 19.811 28.4559C19.8913 28.524 19.9865 28.5722 20.0889 28.5967C20.1921 28.6175 20.2988 28.6136 20.4002 28.5855C20.5017 28.5573 20.5951 28.5057 20.6729 28.4347C20.7774 28.3375 20.8664 28.2248 20.9369 28.1007C21.0689 27.8807 21.2179 27.5577 21.3939 27.1787L21.4079 27.1497L24.1379 21.2497L24.1559 21.2127C24.4369 20.6057 24.6719 20.0987 24.7939 19.6857C24.9199 19.2557 24.9619 18.8047 24.6989 18.3917C24.4359 17.9797 24.0079 17.8287 23.5649 17.7627C23.1389 17.6997 22.5799 17.6997 21.9109 17.6997H20.4999V13.2377C20.4999 12.8197 20.4999 12.4637 20.4729 12.2087C20.4608 12.0664 20.4271 11.9268 20.3729 11.7947C20.3321 11.6976 20.269 11.6116 20.1887 11.5435C20.1084 11.4754 20.0132 11.4271 19.9109 11.4027C19.8076 11.3811 19.7008 11.3845 19.5992 11.4127C19.4976 11.4409 19.4042 11.493 19.3269 11.5647C19.2223 11.6619 19.1333 11.7745 19.0629 11.8987C18.9309 12.1187 18.7819 12.4417 18.6059 12.8207L18.5919 12.8497L15.8619 18.7497L15.8439 18.7867C15.5629 19.3937 15.3279 19.9007 15.2059 20.3137C15.0799 20.7437 15.0369 21.1947 15.3009 21.6077C15.5639 22.0197 15.9919 22.1707 16.4349 22.2367C16.8609 22.2997 17.4199 22.2997 18.0889 22.2997H18.1299Z" stroke="url(#paint0_linear_109_10008)" stroke-width="1.5"/>
<defs>
<linearGradient id="paint0_linear_109_10008" x1="19.9997" y1="11.3887" x2="19.9997" y2="28.6099" gradientUnits="userSpaceOnUse">
<stop stop-color="#2133D6"/>
<stop offset="0.65" stop-color="#7D21CF"/>
</linearGradient>
</defs>
</svg>
