<svg width="90" height="91" viewBox="0 0 90 91" fill="none" xmlns="http://www.w3.org/2000/svg">
<rect y="0.28125" width="90" height="90" rx="45" fill="white"/>
<rect opacity="0.2" y="0.28125" width="90" height="90" rx="45" fill="white"/>
<path d="M54.1628 43.2034L37.9755 33.9905C36.2584 33.0103 34.5078 34.0823 34.5078 36.0102V55.2429C34.5078 56.8762 35.5711 57.621 36.5594 57.621C37.0248 57.621 37.4989 57.4741 37.9699 57.1875L54.2299 47.2347C55.0473 46.7326 55.5063 45.9894 55.492 45.1951C55.4784 44.4 54.9946 43.6736 54.1628 43.2034ZM53.1403 45.4569L36.8811 55.4074C36.7717 55.4744 36.6855 55.5079 36.6264 55.5247C36.6105 55.4656 36.5945 55.3746 36.5945 55.2429V36.011C36.5945 35.813 36.6304 35.7132 36.6304 35.6885C36.6943 35.6925 36.806 35.7252 36.9465 35.805L53.1315 45.0179C53.3311 45.132 53.3901 45.231 53.4093 45.2095C53.3989 45.2366 53.3311 45.338 53.1403 45.4569Z" fill="#050B20"/>
</svg>
