<svg width="2" height="10" viewBox="0 0 2 10" fill="none" xmlns="http://www.w3.org/2000/svg">
<path d="M0 1.00049C0 0.860488 -1.03377e-07 0.791488 0.0079999 0.733488C0.0334542 0.550197 0.118029 0.380218 0.248879 0.249368C0.37973 0.118517 0.549708 0.0339425 0.733 0.00848818C0.79 0.000488178 0.86 0.000488281 1 0.000488281C1.14 0.000488281 1.209 0.000488178 1.267 0.00848818C1.45029 0.0339425 1.62027 0.118517 1.75112 0.249368C1.88197 0.380218 1.96655 0.550197 1.992 0.733488C2 0.790488 2 0.860488 2 1.00049C2 1.14049 2 1.20949 1.992 1.26749C1.96655 1.45078 1.88197 1.62076 1.75112 1.75161C1.62027 1.88246 1.45029 1.96703 1.267 1.99249C1.21 2.00049 1.14 2.00049 1 2.00049C0.86 2.00049 0.791 2.00049 0.733 1.99249C0.549708 1.96703 0.37973 1.88246 0.248879 1.75161C0.118029 1.62076 0.0334542 1.45078 0.0079999 1.26749C-1.03377e-07 1.21049 0 1.14049 0 1.00049ZM0 5.00049C0 4.86049 -1.03377e-07 4.79149 0.0079999 4.73349C0.0334542 4.5502 0.118029 4.38022 0.248879 4.24937C0.37973 4.11852 0.549708 4.03394 0.733 4.00849C0.79 4.00049 0.86 4.00049 1 4.00049C1.14 4.00049 1.209 4.00049 1.267 4.00849C1.45029 4.03394 1.62027 4.11852 1.75112 4.24937C1.88197 4.38022 1.96655 4.5502 1.992 4.73349C2 4.79049 2 4.86049 2 5.00049C2 5.14049 2 5.20949 1.992 5.26749C1.96655 5.45078 1.88197 5.62076 1.75112 5.75161C1.62027 5.88246 1.45029 5.96703 1.267 5.99249C1.21 6.00049 1.14 6.00049 1 6.00049C0.86 6.00049 0.791 6.00049 0.733 5.99249C0.549708 5.96703 0.37973 5.88246 0.248879 5.75161C0.118029 5.62076 0.0334542 5.45078 0.0079999 5.26749C-1.03377e-07 5.21049 0 5.14049 0 5.00049ZM0 9.00049C0 8.86149 -1.03377e-07 8.79149 0.0079999 8.73349C0.0336033 8.55052 0.118121 8.38088 0.248757 8.25025C0.379393 8.11961 0.549035 8.03509 0.732 8.00949C0.791 8.00149 0.86 8.00149 0.999 8.00149C1.138 8.00149 1.209 8.00149 1.266 8.00949C1.44896 8.03509 1.61861 8.11961 1.74924 8.25025C1.87988 8.38088 1.9644 8.55052 1.99 8.73349C1.998 8.79149 1.998 8.86149 1.998 9.00049C1.998 9.13949 1.998 9.20949 1.99 9.26749C1.9644 9.45045 1.87988 9.6201 1.74924 9.75073C1.61861 9.88137 1.44896 9.96589 1.266 9.99149C1.208 9.99949 1.138 9.99949 0.999 9.99949C0.86 9.99949 0.79 9.99949 0.732 9.99149C0.549035 9.96589 0.379393 9.88137 0.248757 9.75073C0.118121 9.6201 0.0336033 9.45045 0.0079999 9.26749C-1.03377e-07 9.20949 0 9.13949 0 9.00049Z" fill="black"/>
</svg>
