<svg width="15" height="15" viewBox="0 0 15 15" fill="none" xmlns="http://www.w3.org/2000/svg">
<path d="M14.534 0.875H5.97843C5.76347 0.875 5.58953 1.04894 5.58953 1.2639C5.58953 1.47886 5.76347 1.6528 5.97843 1.6528H13.5952L1.03679 14.2112C0.884871 14.3631 0.884871 14.6092 1.03679 14.7611C1.11274 14.837 1.21227 14.875 1.31176 14.875C1.41126 14.875 1.51075 14.837 1.58673 14.7611L14.1451 2.2027V9.81947C14.1451 10.0344 14.319 10.2084 14.534 10.2084C14.749 10.2084 14.9229 10.0344 14.9229 9.81947V1.2639C14.9229 1.04894 14.7489 0.875 14.534 0.875Z" fill="#405FF2"/>
</svg>
