<svg width="24" height="24" viewBox="0 0 24 24" fill="none" xmlns="http://www.w3.org/2000/svg">
<path d="M21.5572 11.115L18.567 9.91948L16.8292 5.86425C16.4737 5.0355 15.6623 4.5 14.7608 4.5H7.88174C6.88275 4.5 5.9925 5.17125 5.718 6.132L4.6845 9.75H3C2.17275 9.75 1.5 10.4228 1.5 11.25V15.75C1.5 16.5772 2.17275 17.25 3 17.25H4.6065C4.94175 18.54 6.1065 19.5 7.5 19.5C8.89348 19.5 10.0583 18.54 10.3935 17.25H13.6065C13.9417 18.54 15.1065 19.5 16.5 19.5C17.8935 19.5 19.0583 18.54 19.3935 17.25H21C21.8272 17.25 22.5 16.5772 22.5 15.75V12.5077C22.5 11.8905 22.1303 11.3437 21.5572 11.115ZM7.5 18C6.67275 18 6 17.3272 6 16.5C6 15.6728 6.67275 15 7.5 15C8.32722 15 9 15.6728 9 16.5C9 17.3272 8.32722 18 7.5 18ZM16.5 18C15.6728 18 15 17.3272 15 16.5C15 15.6728 15.6728 15 16.5 15C17.3272 15 18 15.6728 18 16.5C18 17.3272 17.3272 18 16.5 18ZM21 15.75H19.3935C19.0583 14.46 17.8935 13.5 16.5 13.5C15.1065 13.5 13.9417 14.46 13.6065 15.75H10.3935C10.0583 14.46 8.89348 13.5 7.5 13.5C6.1065 13.5 4.94175 14.46 4.6065 15.75H3V11.25H5.25C5.5845 11.25 5.87925 11.028 5.97075 10.7063L7.15948 6.5445C7.25174 6.2235 7.548 6 7.88174 6H14.7608C15.0608 6 15.3315 6.1785 15.45 6.4545L17.31 10.7955C17.388 10.9785 17.5357 11.1225 17.7203 11.1968L21 12.5077V15.75Z" fill="white"/>
<path d="M10.834 13.3741C10.4897 13.1447 10.3967 12.6789 10.6262 12.3339L11.3485 11.2501H10.5002C10.2235 11.2501 9.96926 11.0979 9.83874 10.8541C9.70822 10.6104 9.72248 10.3141 9.87622 10.0847L11.3762 7.83466C11.6057 7.48969 12.0715 7.39666 12.4165 7.62692C12.7607 7.8564 12.8537 8.32214 12.6242 8.66717L11.902 9.75014H12.7502C13.027 9.75014 13.2813 9.9024 13.4117 10.1461C13.5422 10.3899 13.528 10.6861 13.3742 10.9157L11.8742 13.1657C11.644 13.5114 11.1775 13.6037 10.834 13.3741Z" fill="white"/>
</svg>
