<svg width="24" height="24" viewBox="0 0 24 24" fill="none" xmlns="http://www.w3.org/2000/svg">
<mask id="mask0_1142_12899" style="mask-type:luminance" maskUnits="userSpaceOnUse" x="0" y="0" width="24" height="24">
<path d="M24 0H0V24H24V0Z" fill="white"/>
</mask>
<g mask="url(#mask0_1142_12899)">
<path d="M23.2174 15.1303H22.4348V11.2173C22.4348 9.92268 21.3815 8.86951 20.0869 8.86951H17.5206L16.4905 5.77915C16.1704 4.81897 15.2752 4.17383 14.2631 4.17383C14.1412 4.17383 5.68045 4.17383 5.47823 4.17383C4.45795 4.17383 3.58809 4.82815 3.26503 5.73903H2.34783C1.05323 5.73903 0 6.79226 0 8.08682V11.2173C0 12.5119 1.05323 13.5651 2.34783 13.5651H3.13045V15.1303H2.34783C1.91564 15.1303 1.5652 15.4807 1.5652 15.9129C1.5652 16.3452 1.9156 16.6956 2.34783 16.6956C3.08077 16.6956 3.96028 16.6956 4.69566 16.6956C4.69566 18.4217 6.09998 19.8261 7.82612 19.8261C9.55221 19.8261 10.9566 18.4217 10.9566 16.6956H14.6087C14.6087 18.4217 16.0131 19.8261 17.7392 19.8261C19.4653 19.8261 20.8696 18.4217 20.8696 16.6956C21.6052 16.6956 22.485 16.6956 23.2175 16.6956C23.6497 16.6956 24.0001 16.3452 24.0001 15.9129C24.0001 15.4807 23.6496 15.1303 23.2174 15.1303ZM3.13045 11.9999H2.34783C1.91629 11.9999 1.5652 11.6488 1.5652 11.2173V8.08682C1.5652 7.65525 1.91629 7.30421 2.34783 7.30421H3.13045C3.13045 7.80285 3.13045 11.5164 3.13045 11.9999ZM10.9565 5.73903H12.2609H14.2631C14.6005 5.73903 14.8989 5.95409 15.0056 6.2741L15.8706 8.86943H10.9565V5.73903ZM4.69566 6.52161C4.69566 6.09007 5.04675 5.73898 5.47828 5.73898H9.39134V8.86943H4.69566V6.52161ZM7.82612 18.2608C6.96305 18.2608 6.26091 17.5586 6.26091 16.6956C6.26091 15.8325 6.96305 15.1303 7.82612 15.1303C8.6892 15.1303 9.39134 15.8325 9.39134 16.6956C9.39134 17.5586 8.6892 18.2608 7.82612 18.2608ZM17.7391 18.2608C16.8761 18.2608 16.174 17.5586 16.174 16.6956C16.174 15.8325 16.8761 15.1303 17.7391 15.1303C18.6022 15.1303 19.3043 15.8325 19.3043 16.6956C19.3043 17.5586 18.6022 18.2608 17.7391 18.2608ZM20.8696 15.1303H20.4484C19.9062 14.1956 18.8953 13.5651 17.7391 13.5651C16.583 13.5651 15.572 14.1956 15.0299 15.1303H10.5354C9.99325 14.1956 8.98221 13.5651 7.82612 13.5651C6.66998 13.5651 5.65898 14.1956 5.11683 15.1303H4.69571V12.7825V10.4347C5.97192 10.4347 19.249 10.4347 20.087 10.4347C20.5185 10.4347 20.8696 10.7858 20.8696 11.2173L20.8696 15.1303Z" fill="white"/>
<path d="M13.3049 12H11.7396C11.3074 12 10.957 12.3504 10.957 12.7826C10.957 13.2148 11.3074 13.5652 11.7396 13.5652H13.3049C13.737 13.5652 14.0875 13.2149 14.0875 12.7826C14.0875 12.3504 13.7371 12 13.3049 12Z" fill="white"/>
</g>
</svg>
