<svg width="25" height="24" viewBox="0 0 25 24" fill="none" xmlns="http://www.w3.org/2000/svg">
<mask id="mask0_1142_12953" style="mask-type:luminance" maskUnits="userSpaceOnUse" x="0" y="0" width="25" height="24">
<path d="M24.3535 0H0.353516V24H24.3535V0Z" fill="white"/>
</mask>
<g mask="url(#mask0_1142_12953)">
<path d="M22.0658 11.003L17.9228 10.3122C17.6805 9.91873 17.199 9.20699 16.4988 8.4939C15.1013 7.07063 13.4923 6.31836 11.8457 6.31836H5.09881C4.00288 6.31836 2.98677 6.91091 2.447 7.86475L0.587797 11.1505C0.584797 11.1558 0.582547 11.1613 0.579687 11.1667C0.435875 11.424 0.353516 11.7202 0.353516 12.0355V15.4977C0.353516 15.886 0.668328 16.2008 1.05664 16.2008H3.30856C3.63908 17.0656 4.48152 17.6822 5.4665 17.6822C6.45149 17.6822 7.29389 17.0656 7.62446 16.2008H16.3573C16.6878 17.0656 17.5302 17.6822 18.5152 17.6822C19.5002 17.6822 20.3426 17.0656 20.673 16.2008H23.6504C24.0387 16.2008 24.3535 15.886 24.3535 15.4977V13.6363C24.3535 12.3173 23.3707 11.1872 22.0658 11.003ZM16.1636 10.2484H11.0985V7.72463H11.8457C13.8387 7.72463 15.3438 9.19802 16.1636 10.2484ZM6.40555 7.72463H9.69227V10.2484H6.40555V7.72463ZM3.67091 8.55729C3.94512 8.0727 4.44772 7.76162 4.99929 7.72802V10.2484H2.714L3.67091 8.55729ZM5.4665 16.2759C4.96949 16.2759 4.56514 15.8784 4.56514 15.3896C4.56514 14.9009 4.96949 14.5033 5.4665 14.5033C5.96352 14.5033 6.36786 14.9009 6.36786 15.3896C6.36786 15.8784 5.96352 16.2759 5.4665 16.2759ZM18.5152 16.2759C18.0181 16.2759 17.6138 15.8784 17.6138 15.3896C17.6138 14.9009 18.0182 14.5033 18.5152 14.5033C19.0122 14.5033 19.4165 14.9009 19.4165 15.3896C19.4165 15.8784 19.0122 16.2759 18.5152 16.2759ZM20.7434 14.7945C20.479 13.8181 19.5804 13.097 18.5152 13.097C17.4498 13.097 16.5513 13.8181 16.2868 14.7945H7.69476C7.43034 13.8181 6.53178 13.097 5.4665 13.097C4.40122 13.097 3.50267 13.8181 3.23815 14.7945H1.75977V12.0355C1.75977 11.8255 1.93058 11.6546 2.14058 11.6546H17.4239L21.8438 12.3917C21.8505 12.3928 21.8573 12.3939 21.8642 12.3948C21.9837 12.4112 22.0975 12.4446 22.2035 12.492C21.9093 12.5762 21.6938 12.8464 21.6938 13.1676C21.6938 13.5559 22.0086 13.8708 22.3969 13.8708H22.9473V14.7946L20.7434 14.7945Z" fill="white"/>
</g>
</svg>
