<svg width="21" height="13" viewBox="0 0 21 13" fill="none" xmlns="http://www.w3.org/2000/svg">
<path d="M17.25 3.7501H16.3725C16.2738 3.75074 16.1759 3.73182 16.0846 3.69448C15.9932 3.65714 15.9101 3.60215 15.84 3.53262L13.845 1.53765C13.353 1.04565 12.7681 0.656373 12.1244 0.39243C11.4805 0.128479 10.7908 -0.00486888 10.095 0.000135824H3.75C2.75544 0.000135824 1.80161 0.395225 1.09835 1.09845C0.395089 1.80172 0 2.75558 0 3.7501V7.5001C0 8.09685 0.237056 8.66918 0.659012 9.09116C1.08097 9.51307 1.65326 9.7501 2.25 9.7501C2.25 10.4463 2.52656 11.114 3.01885 11.6063C3.51113 12.0986 4.17881 12.3751 4.875 12.3751C5.57118 12.3751 6.23887 12.0986 6.73115 11.6063C7.22344 11.114 7.5 10.4463 7.5 9.7501H12.825C12.9079 10.3776 13.2161 10.9536 13.6921 11.3709C14.1681 11.7881 14.7795 12.0182 15.4125 12.0182C16.0455 12.0182 16.6569 11.7881 17.1329 11.3709C17.6089 10.9536 17.9171 10.3776 18 9.7501H18.75C19.3468 9.7501 19.919 9.51307 20.341 9.09116C20.763 8.66918 21 8.09685 21 7.5001C21 6.50558 20.6049 5.55172 19.9016 4.84845C19.1984 4.14525 18.2446 3.7501 17.25 3.7501ZM10.1325 1.5001C10.6253 1.49925 11.1134 1.59554 11.569 1.78337C12.0246 1.97128 12.4386 2.24714 12.7875 2.59514L13.9425 3.7501H4.68C4.54023 3.75109 4.40296 3.71297 4.2837 3.64012C4.16442 3.56721 4.06789 3.46245 4.005 3.33765L3.135 1.59765C3.33391 1.53434 3.54126 1.50144 3.75 1.5001H10.1325ZM1.5 7.5001V3.7501C1.50041 3.29467 1.63902 2.8501 1.8975 2.47514L2.6475 3.97514C2.83148 4.35779 3.11996 4.68052 3.47962 4.90612C3.83928 5.13179 4.25543 5.25102 4.68 5.2501H9V8.2501H7.23748C7.02685 7.80151 6.69275 7.4221 6.27438 7.15641C5.856 6.89064 5.37064 6.74954 4.875 6.74954C4.37936 6.74954 3.89397 6.89064 3.4756 7.15641C3.05723 7.4221 2.72317 7.80151 2.5125 8.2501H2.25C2.05109 8.2501 1.86032 8.17111 1.71967 8.0305C1.57902 7.88982 1.5 7.69902 1.5 7.5001ZM4.875 10.5001C4.6525 10.5001 4.43499 10.4342 4.24998 10.3106C4.06498 10.1869 3.92078 10.0112 3.83564 9.80565C3.75049 9.6001 3.72821 9.37387 3.77161 9.15568C3.81503 8.93742 3.92217 8.73695 4.07951 8.57961C4.23684 8.42234 4.4373 8.31518 4.65552 8.27177C4.87375 8.22836 5.09995 8.25059 5.30552 8.33579C5.51109 8.42092 5.6868 8.56514 5.8104 8.75015C5.934 8.93509 6 9.15264 6 9.37514C6 9.67351 5.88148 9.95968 5.67049 10.1706C5.45952 10.3816 5.17337 10.5001 4.875 10.5001ZM15.375 10.5001C15.1525 10.5001 14.935 10.4342 14.75 10.3106C14.565 10.1869 14.4208 10.0112 14.3356 9.80565C14.2505 9.6001 14.2282 9.37387 14.2716 9.15568C14.315 8.93742 14.4222 8.73695 14.5795 8.57961C14.7368 8.42234 14.9373 8.31518 15.1555 8.27177C15.3738 8.22836 15.5999 8.25059 15.8056 8.33579C16.0111 8.42092 16.1868 8.56514 16.3104 8.75015C16.434 8.93509 16.5 9.15264 16.5 9.37514C16.5 9.67351 16.3815 9.95968 16.1705 10.1706C15.9595 10.3816 15.6733 10.5001 15.375 10.5001ZM18.75 8.2501H17.7375C17.5268 7.80151 17.1928 7.4221 16.7744 7.15641C16.356 6.89064 15.8706 6.74954 15.375 6.74954C14.8794 6.74954 14.394 6.89064 13.9756 7.15641C13.5572 7.4221 13.2232 7.80151 13.0125 8.2501H10.5V5.2501H17.25C17.5645 5.25179 17.8752 5.31942 18.162 5.44859C18.4488 5.57784 18.7053 5.76568 18.915 6.0001H18.75C18.5511 6.0001 18.3604 6.07916 18.2197 6.21977C18.079 6.36045 18 6.55125 18 6.7501C18 6.94902 18.079 7.13982 18.2197 7.2805C18.3604 7.42111 18.5511 7.5001 18.75 7.5001H19.5C19.5 7.69902 19.421 7.88982 19.2803 8.0305C19.1396 8.17111 18.9489 8.2501 18.75 8.2501Z" fill="white"/>
</svg>
