<svg width="40" height="41" viewBox="0 0 40 41" fill="none" xmlns="http://www.w3.org/2000/svg">
<path d="M11.3759 36.75H28.6243C30.1712 36.75 31.4017 35.4773 31.2353 34.0109C30.161 24.5625 23.7501 24.7188 23.7501 20.5C23.7501 16.2812 30.2431 16.5156 31.2345 6.98906C31.3907 5.52187 30.1712 4.25 28.6243 4.25H11.3759C9.82901 4.25 8.6126 5.52187 8.76573 6.98906C9.75713 16.5156 16.2501 16.2031 16.2501 20.5C16.2501 24.7969 9.83916 24.5625 8.76573 34.0109C8.59854 35.4773 9.82901 36.75 11.3759 36.75Z" stroke="#7149E1" stroke-linecap="round" stroke-linejoin="round"/>
<path d="M26.8205 34.25H13.2135C11.9948 34.25 11.651 32.8438 12.5057 31.9719C14.5745 29.875 18.7502 28.3734 18.7502 25.9688V18C18.7502 16.4492 15.7815 15.2656 13.9448 12.75C13.6416 12.3352 13.6721 11.75 14.4424 11.75H25.5932C26.2502 11.75 26.3924 12.3305 26.0932 12.7461C24.283 15.2656 21.2502 16.4414 21.2502 18V25.9688C21.2502 28.3539 25.6026 29.6406 27.5315 31.9742C28.3088 32.9148 28.037 34.25 26.8205 34.25Z" fill="#7149E1"/>
</svg>
