<svg width="15" height="16" viewBox="0 0 15 16" fill="none" xmlns="http://www.w3.org/2000/svg">
<g clip-path="url(#clip0_1781_4880)">
<path d="M7.5 8.95C5.23333 8.95 3.5 9.46667 2.3 10.5C1.1 11.5333 0.5 13.0167 0.5 14.95C0.5 15.1167 0.558333 15.25 0.675 15.35C0.791667 15.45 0.916667 15.5 1.05 15.5H13.95C14.0833 15.5 14.2083 15.45 14.325 15.35C14.4417 15.25 14.5 15.1167 14.5 14.95C14.5 13.0167 13.9 11.5333 12.7 10.5C11.5 9.46667 9.76667 8.95 7.5 8.95ZM1.65 14.4C1.85 11.5 3.8 10.05 7.5 10.05C11.2 10.05 13.15 11.5 13.35 14.4H1.65ZM7.5 0.5C6.83333 0.5 6.21667 0.658333 5.65 0.974999C5.08333 1.29167 4.64167 1.73333 4.325 2.3C4.00833 2.86667 3.85 3.5 3.85 4.2C3.85 4.9 4.01667 5.55833 4.35 6.175C4.68333 6.79167 5.125 7.275 5.675 7.625C6.225 7.975 6.83333 8.15 7.5 8.15C8.16667 8.15 8.775 7.975 9.325 7.625C9.875 7.275 10.3167 6.79167 10.65 6.175C10.9833 5.55833 11.15 4.9 11.15 4.2C11.15 3.5 10.9917 2.86667 10.675 2.3C10.3583 1.73333 9.91667 1.29167 9.35 0.974999C8.78333 0.658333 8.16667 0.5 7.5 0.5ZM7.5 7.05C6.8 7.05 6.2 6.775 5.7 6.225C5.2 5.675 4.95 5.00833 4.95 4.225C4.95 3.44167 5.19167 2.80833 5.675 2.325C6.15833 1.84167 6.76667 1.6 7.5 1.6C8.23333 1.6 8.84167 1.85 9.325 2.35C9.80833 2.85 10.05 3.48333 10.05 4.25C10.05 5.01667 9.8 5.675 9.3 6.225C8.8 6.775 8.2 7.05 7.5 7.05Z" fill="#333333"/>
</g>
<defs>
<clipPath id="clip0_1781_4880">
<rect width="15" height="15" fill="white" transform="matrix(1 0 0 -1 0 15.5)"/>
</clipPath>
</defs>
</svg>
