<svg width="12" height="13" viewBox="0 0 12 13" fill="none" xmlns="http://www.w3.org/2000/svg">
<path d="M4.50391 9C4.50391 9.26522 4.39855 9.51957 4.21101 9.70711C4.02348 9.89464 3.76912 10 3.50391 10C3.23869 10 2.98434 9.89464 2.7968 9.70711C2.60926 9.51957 2.50391 9.26522 2.50391 9C2.50391 8.73478 2.60926 8.48043 2.7968 8.29289C2.98434 8.10536 3.23869 8 3.50391 8C3.76912 8 4.02348 8.10536 4.21101 8.29289C4.39855 8.48043 4.50391 8.73478 4.50391 9ZM9.50391 9C9.50391 9.26522 9.39855 9.51957 9.21101 9.70711C9.02348 9.89464 8.76912 10 8.50391 10C8.23869 10 7.98434 9.89464 7.7968 9.70711C7.60926 9.51957 7.50391 9.26522 7.50391 9C7.50391 8.73478 7.60926 8.48043 7.7968 8.29289C7.98434 8.10536 8.23869 8 8.50391 8C8.76912 8 9.02348 8.10536 9.21101 8.29289C9.39855 8.48043 9.50391 8.73478 9.50391 9Z" stroke="black" stroke-width="0.9" stroke-linecap="round" stroke-linejoin="round"/>
<path d="M1.00391 5.5H9.00391M1.00391 5.5C1.00391 5.89 0.993906 7.02 1.00591 8.13C1.02391 8.49 1.08391 8.79 2.50491 9M1.00391 5.5C1.11191 4.63 1.58141 3.6 1.82141 3.21M4.50391 5.5V3M7.49891 9H4.50141M1.01141 3H6.12041C6.12041 3 6.39041 3 6.63041 3.024C7.07991 3.066 7.45741 3.27 7.83541 3.78C8.23541 4.32 8.54241 5.004 8.95041 5.37C9.62791 5.978 10.9169 5.79 10.9889 7.08C11.0069 7.74 11.0069 8.46 10.9769 8.58C10.9284 8.9335 10.6559 8.991 10.3169 9C10.0229 9.008 9.66841 8.986 9.49591 9" stroke="black" stroke-width="0.9" stroke-linecap="round" stroke-linejoin="round"/>
</svg>
