<svg width="34" height="34" viewBox="0 0 34 34" fill="none" xmlns="http://www.w3.org/2000/svg">
<path d="M31.5815 17.0001L33.4215 13.8201C33.6426 13.4375 33.7028 12.9828 33.5887 12.5559C33.4746 12.1289 33.1956 11.7648 32.8131 11.5435L29.6298 9.70347V6.0368C29.6298 5.59478 29.4542 5.17085 29.1416 4.85829C28.8291 4.54573 28.4052 4.37014 27.9631 4.37014H24.2981L22.4598 1.18847C22.2389 0.805688 21.875 0.526319 21.4481 0.411803C21.2367 0.355139 21.0161 0.340693 20.7991 0.36929C20.582 0.397887 20.3727 0.468968 20.1831 0.57847L16.9998 2.41847L13.8165 0.576803C13.4337 0.355799 12.9788 0.295908 12.5518 0.410305C12.1249 0.524701 11.7608 0.804015 11.5398 1.1868L9.69981 4.37014H6.03481C5.59278 4.37014 5.16886 4.54573 4.8563 4.85829C4.54374 5.17085 4.36814 5.59478 4.36814 6.0368V9.7018L1.18481 11.5418C0.995188 11.6514 0.829024 11.7973 0.695814 11.9711C0.562603 12.1449 0.464959 12.3433 0.408463 12.5549C0.351966 12.7665 0.337725 12.9871 0.366554 13.2042C0.395382 13.4213 0.466714 13.6306 0.576474 13.8201L2.41647 17.0001L0.576474 20.1801C0.356455 20.5631 0.29676 21.0175 0.410404 21.4443C0.524048 21.8711 0.801814 22.2356 1.18314 22.4585L4.36647 24.2985V27.9635C4.36647 28.4055 4.54207 28.8294 4.85463 29.142C5.16719 29.4545 5.59111 29.6301 6.03314 29.6301H9.69981L11.5398 32.8135C11.6874 33.0657 11.898 33.2752 12.1511 33.4213C12.4042 33.5674 12.6909 33.6451 12.9831 33.6468C13.2731 33.6468 13.5615 33.5701 13.8181 33.4218L16.9981 31.5818L20.1815 33.4218C20.5641 33.6429 21.0188 33.7031 21.4458 33.589C21.8727 33.4749 22.2368 33.196 22.4581 32.8135L24.2965 29.6301H27.9615C28.4035 29.6301 28.8274 29.4545 29.14 29.142C29.4525 28.8294 29.6281 28.4055 29.6281 27.9635V24.2985L32.8115 22.4585C33.0011 22.3489 33.1673 22.203 33.3005 22.0292C33.4337 21.8554 33.5313 21.657 33.5878 21.4454C33.6443 21.2338 33.6586 21.0131 33.6297 20.796C33.6009 20.5789 33.5296 20.3697 33.4198 20.1801L31.5815 17.0001ZM12.8315 8.65014C13.4947 8.65036 14.1307 8.91405 14.5996 9.3832C15.0684 9.85236 15.3317 10.4885 15.3315 11.1518C15.3313 11.8151 15.0676 12.4511 14.5984 12.9199C14.1293 13.3888 13.4931 13.652 12.8298 13.6518C12.1665 13.6516 11.5305 13.3879 11.0617 12.9187C10.5929 12.4496 10.3296 11.8134 10.3298 11.1501C10.33 10.4869 10.5937 9.85087 11.0629 9.38203C11.532 8.91318 12.1682 8.64992 12.8315 8.65014ZM13.3315 24.6501L10.6648 22.6518L20.6648 9.31847L23.3315 11.3168L13.3315 24.6501ZM21.1648 25.3168C20.8364 25.3167 20.5112 25.2519 20.2078 25.1261C19.9045 25.0003 19.6288 24.816 19.3967 24.5837C19.1645 24.3514 18.9804 24.0757 18.8549 23.7722C18.7293 23.4688 18.6647 23.1436 18.6648 22.8151C18.6649 22.4867 18.7297 22.1615 18.8555 21.8582C18.9813 21.5548 19.1656 21.2792 19.3979 21.047C19.6302 20.8149 19.9059 20.6308 20.2094 20.5052C20.5128 20.3796 20.8381 20.315 21.1665 20.3151C21.8297 20.3154 22.4657 20.5791 22.9346 21.0482C23.4034 21.5174 23.6667 22.1535 23.6665 22.8168C23.6663 23.4801 23.4026 24.1161 22.9334 24.5849C22.4643 25.0538 21.8281 25.317 21.1648 25.3168Z" fill="#7149E1"/>
</svg>
