<svg width="14" height="16" viewBox="0 0 14 16" fill="none" xmlns="http://www.w3.org/2000/svg">
<path d="M9.49962 14.5667C9.53295 14.8167 9.44962 15.0833 9.25795 15.2583C9.18086 15.3356 9.08928 15.3969 8.98847 15.4387C8.88766 15.4805 8.77959 15.502 8.67045 15.502C8.56131 15.502 8.45325 15.4805 8.35243 15.4387C8.25162 15.3969 8.16005 15.3356 8.08295 15.2583L4.74129 11.9167C4.65045 11.8278 4.58138 11.7191 4.53946 11.5991C4.49754 11.4792 4.48391 11.3511 4.49962 11.225V6.95833L0.507954 1.85C0.372628 1.67628 0.311566 1.45605 0.338111 1.23744C0.364656 1.01883 0.47665 0.819622 0.649621 0.683333C0.807954 0.566667 0.982954 0.5 1.16629 0.5H12.833C13.0163 0.5 13.1913 0.566667 13.3496 0.683333C13.5226 0.819622 13.6346 1.01883 13.6611 1.23744C13.6877 1.45605 13.6266 1.67628 13.4913 1.85L9.49962 6.95833V14.5667ZM2.86629 2.16667L6.16629 6.38333V10.9833L7.83295 12.65V6.375L11.133 2.16667H2.86629Z" fill="black"/>
</svg>
