<svg width="28" height="29" viewBox="0 0 28 29" fill="none" xmlns="http://www.w3.org/2000/svg">
<path d="M26.32 14.792C26.32 13.882 26.2383 13.007 26.0867 12.167H14V17.1312H20.9067C20.6092 18.7353 19.705 20.0945 18.3458 21.0045V24.2245H22.4933C24.92 21.9903 26.32 18.7003 26.32 14.792Z" fill="#4285F4"/>
<path d="M13.9996 27.3335C17.4646 27.3335 20.3696 26.1843 22.4929 24.2243L18.3454 21.0043C17.1963 21.7743 15.7263 22.2293 13.9996 22.2293C10.6571 22.2293 7.82792 19.9718 6.81875 16.9385H2.53125V20.2635C4.64292 24.4576 8.98292 27.3335 13.9996 27.3335Z" fill="#34A853"/>
<path d="M6.81949 16.938C6.56283 16.168 6.41699 15.3455 6.41699 14.4997C6.41699 13.6538 6.56283 12.8313 6.81949 12.0613V8.73633H2.53199C1.63366 10.5247 1.1662 12.4984 1.16699 14.4997C1.16699 16.5705 1.66283 18.5305 2.53199 20.263L6.81949 16.938Z" fill="#FBBC05"/>
<path d="M13.9996 6.77116C15.8837 6.77116 17.5754 7.41866 18.9054 8.69033L22.5862 5.00949C20.3637 2.93866 17.4587 1.66699 13.9996 1.66699C8.98292 1.66699 4.64292 4.54283 2.53125 8.73699L6.81875 12.062C7.82792 9.02866 10.6571 6.77116 13.9996 6.77116Z" fill="#EA4335"/>
</svg>
