<svg width="20" height="20" viewBox="0 0 20 20" fill="none" xmlns="http://www.w3.org/2000/svg">
<path d="M19.4445 0H7.22225C6.91516 0 6.66668 0.24849 6.66668 0.555573C6.66668 0.862656 6.91516 1.11115 7.22225 1.11115H18.1033L0.162773 19.0517C-0.0542577 19.2687 -0.0542577 19.6203 0.162773 19.8373C0.271263 19.9457 0.41345 20 0.555586 20C0.697722 20 0.839857 19.9457 0.948399 19.8373L18.8889 1.89671V12.7778C18.8889 13.0849 19.1373 13.3334 19.4445 13.3334C19.7516 13.3334 20.0001 13.0849 20.0001 12.7778V0.555573C20.0001 0.24849 19.7515 0 19.4445 0Z" fill="#1A1A1A"/>
</svg>
