<svg width="20" height="20" viewBox="0 0 20 20" fill="none" xmlns="http://www.w3.org/2000/svg">
<path d="M7.5 8.33333C7.5 7.83888 7.64662 7.35553 7.92133 6.94441C8.19603 6.53329 8.58648 6.21285 9.04329 6.02364C9.50011 5.83442 10.0028 5.78491 10.4877 5.88137C10.9727 5.97783 11.4181 6.21594 11.7678 6.56557C12.1174 6.9152 12.3555 7.36066 12.452 7.84561C12.5484 8.33056 12.4989 8.83323 12.3097 9.29004C12.1205 9.74686 11.8 10.1373 11.3889 10.412C10.9778 10.6867 10.4945 10.8333 10 10.8333V11.6667M10 14.1667H10.0083M17.5 10C17.5 14.1421 14.1421 17.5 10 17.5C5.85786 17.5 2.5 14.1421 2.5 10C2.5 5.85786 5.85786 2.5 10 2.5C14.1421 2.5 17.5 5.85786 17.5 10Z" stroke="#333333" stroke-linecap="round"/>
</svg>
