<svg width="20" height="20" viewBox="0 0 20 20" fill="none" xmlns="http://www.w3.org/2000/svg">
<path d="M9.55833 18.3333C6.23167 18.3333 4.5675 18.3333 3.53333 17.3566C2.5 16.3808 2.5 14.8091 2.5 11.6666V8.33329C2.5 5.19079 2.5 3.61913 3.53333 2.64329C4.5675 1.66663 6.23167 1.66663 9.55833 1.66663H10.4417C13.7692 1.66663 15.4325 1.66663 16.4667 2.64329C17.5 3.61913 17.5 5.19079 17.5 8.33329M9.58333 18.3333H10.8333M6.66667 5.83329H13.3333M6.66667 9.99996H10.8333" stroke="#333333" stroke-linecap="round" stroke-linejoin="round"/>
<path d="M14.584 15.4916L13.8323 18.1191C13.8247 18.1489 13.8256 18.1802 13.8347 18.2096C13.8438 18.2389 13.8609 18.2652 13.884 18.2854C13.9071 18.3057 13.9354 18.3192 13.9657 18.3244C13.996 18.3296 14.0271 18.3263 14.0557 18.3149L15.7098 17.6541C15.7895 17.6221 15.8785 17.6221 15.9582 17.6541L17.6282 18.3208C17.6561 18.3319 17.6865 18.3353 17.7162 18.3305C17.7459 18.3258 17.7738 18.3131 17.7969 18.2937C17.8199 18.2744 17.8373 18.2492 17.8473 18.2208C17.8572 18.1924 17.8592 18.1619 17.8532 18.1324L17.2165 15.4091M18.334 13.3291C18.3329 12.6668 18.069 12.032 17.6003 11.564C17.1316 11.0961 16.4963 10.8333 15.834 10.8333C14.4532 10.8333 13.334 11.9508 13.334 13.3291C13.3342 13.6571 13.399 13.9819 13.5248 14.2849C13.6506 14.5879 13.8348 14.8631 14.067 15.0949C14.2991 15.3267 14.5747 15.5104 14.8778 15.6357C15.181 15.7609 15.5059 15.8252 15.834 15.8249C17.2148 15.8249 18.334 14.7083 18.334 13.3291Z" stroke="#333333" stroke-linecap="round" stroke-linejoin="round"/>
</svg>
