<svg width="20" height="20" viewBox="0 0 20 20" fill="none" xmlns="http://www.w3.org/2000/svg">
<path d="M14.5117 8.67833C15 8.19 15 7.405 15 5.83333C15 4.26167 15 3.47667 14.5117 2.98833M14.5117 8.67833C14.0233 9.16667 13.2383 9.16667 11.6667 9.16667H8.33333C6.76167 9.16667 5.97667 9.16667 5.48833 8.67833M14.5117 2.98833C14.0233 2.5 13.2383 2.5 11.6667 2.5H8.33333C6.76167 2.5 5.97667 2.5 5.48833 2.98833M5.48833 2.98833C5 3.47667 5 4.26167 5 5.83333C5 7.405 5 8.19 5.48833 8.67833M10.8333 5.83333C10.8333 6.05435 10.7455 6.26631 10.5893 6.42259C10.433 6.57887 10.221 6.66667 10 6.66667C9.77899 6.66667 9.56702 6.57887 9.41074 6.42259C9.25446 6.26631 9.16667 6.05435 9.16667 5.83333C9.16667 5.61232 9.25446 5.40036 9.41074 5.24408C9.56702 5.0878 9.77899 5 10 5C10.221 5 10.433 5.0878 10.5893 5.24408C10.7455 5.40036 10.8333 5.61232 10.8333 5.83333Z" stroke="#333333"/>
<path d="M14.9993 5C14.3363 5 13.7004 4.73661 13.2316 4.26777C12.7627 3.79893 12.4993 3.16304 12.4993 2.5M14.9993 6.66667C14.3363 6.66667 13.7004 6.93006 13.2316 7.3989C12.7627 7.86774 12.4993 8.50362 12.4993 9.16667M4.99935 5C5.66239 5 6.29828 4.73661 6.76712 4.26777C7.23596 3.79893 7.49935 3.16304 7.49935 2.5M4.99935 6.66667C5.66239 6.66667 6.29828 6.93006 6.76712 7.3989C7.23596 7.86774 7.49935 8.50362 7.49935 9.16667M4.16602 16.99H6.04935C6.89102 16.99 7.74352 17.0783 8.56268 17.2467C10.0253 17.5462 11.5299 17.5795 13.0043 17.345C13.7277 17.2283 14.4377 17.0492 15.081 16.7392C15.661 16.4583 16.3718 16.0642 16.8493 15.6217C17.326 15.18 17.8227 14.4575 18.1743 13.8925C18.4777 13.4075 18.331 12.8133 17.8527 12.4525C17.5837 12.2573 17.26 12.1523 16.9277 12.1523C16.5954 12.1523 16.2716 12.2573 16.0027 12.4525L14.4968 13.59C13.9135 14.0317 13.276 14.4375 12.5168 14.5583C12.4252 14.5728 12.3293 14.5858 12.2293 14.5975M12.2293 14.5975L12.1377 14.6075M12.2293 14.5975C12.3627 14.5614 12.485 14.4926 12.5852 14.3975C12.711 14.289 12.8137 14.1564 12.8873 14.0074C12.9609 13.8585 13.0038 13.6963 13.0136 13.5305C13.0234 13.3647 12.9998 13.1986 12.9443 13.0421C12.8887 12.8855 12.8023 12.7417 12.6902 12.6192C12.5816 12.4986 12.4551 12.3955 12.3152 12.3133C9.98435 10.9225 6.35685 11.9817 4.16602 13.5358M12.2293 14.5975C12.1993 14.6042 12.1685 14.6076 12.1377 14.6075M12.1377 14.6075C11.6351 14.6579 11.1288 14.659 10.626 14.6108" stroke="#333333" stroke-linecap="round"/>
<path d="M4.16602 12.9166C4.16602 12.2263 3.60637 11.6666 2.91602 11.6666C2.22566 11.6666 1.66602 12.2263 1.66602 12.9166V17.0833C1.66602 17.7736 2.22566 18.3333 2.91602 18.3333C3.60637 18.3333 4.16602 17.7736 4.16602 17.0833V12.9166Z" stroke="#333333"/>
</svg>
