<svg width="40" height="40" viewBox="0 0 40 40" fill="none" xmlns="http://www.w3.org/2000/svg">
<path d="M28.2827 32.5078C27.8761 29.2154 25.069 26.6667 21.6667 26.6667H18.3333C14.931 26.6667 12.1239 29.2154 11.7173 32.5078M28.2827 32.5078C32.3311 29.8216 35 25.2225 35 20C35 11.7157 28.2843 5 20 5C11.7157 5 5 11.7157 5 20C5 25.2225 7.66894 29.8216 11.7173 32.5078M28.2827 32.5078C25.9093 34.0827 23.0618 35 20 35C16.9382 35 14.0907 34.0827 11.7173 32.5078M25 16.6667C25 19.4281 22.7614 21.6667 20 21.6667C17.2386 21.6667 15 19.4281 15 16.6667C15 13.9052 17.2386 11.6667 20 11.6667C22.7614 11.6667 25 13.9052 25 16.6667Z" stroke="#1A1A1A" stroke-width="1.5" stroke-linecap="round" stroke-linejoin="round"/>
</svg>
