<svg width="32" height="32" viewBox="0 0 32 32" fill="none" xmlns="http://www.w3.org/2000/svg">
<path d="M24.2827 28.5078C23.8761 25.2154 21.069 22.6667 17.6667 22.6667H14.3333C10.931 22.6667 8.12388 25.2154 7.71727 28.5078M24.2827 28.5078C28.3311 25.8216 31 21.2225 31 16C31 7.71573 24.2843 1 16 1C7.71573 1 1 7.71573 1 16C1 21.2225 3.66894 25.8216 7.71727 28.5078M24.2827 28.5078C21.9093 30.0827 19.0618 31 16 31C12.9382 31 10.0907 30.0827 7.71727 28.5078M21 12.6667C21 15.4281 18.7614 17.6667 16 17.6667C13.2386 17.6667 11 15.4281 11 12.6667C11 9.90524 13.2386 7.66667 16 7.66667C18.7614 7.66667 21 9.90524 21 12.6667Z" stroke="#FAFAFA" stroke-width="1.5" stroke-linecap="round" stroke-linejoin="round"/>
</svg>
