<svg width="138" height="36" viewBox="0 0 138 36" fill="none" xmlns="http://www.w3.org/2000/svg">
<path d="M14.4281 19.7897C20.5537 17.1089 44.5805 18.0538 59.4475 18.0538C40.4667 14.6553 7.57619 12.5125 1.88812 17.1081C-3.79995 21.7036 7.13572 28.9044 14.4281 31.4575C11.8758 28.1066 8.30251 22.4704 14.4281 19.7897Z" fill="url(#paint0_linear_787_470)"/>
<path d="M100.766 8.82568C89.3897 2.69831 54.4591 8.18741 38.4159 11.6979C90.046 -9.36497 121.185 2.92169 130.3 11.6979V8.82568C133.946 7.38958 140.364 5.37905 136.863 8.82568C133.363 12.2723 134.731 18.3535 136.19 19.7897C117.095 14.3694 77.2452 21.7395 82.1702 20.7932C93.2754 17.2122 112.142 14.9531 100.766 8.82568Z" fill="url(#paint1_linear_787_470)"/>
<path d="M30.3709 31.5166H22.0374C21.9063 31.5166 21.7845 31.4932 21.672 31.4464C21.5596 31.3995 21.4612 31.3363 21.3769 31.2566C21.2973 31.1723 21.2341 31.074 21.1872 30.9615C21.1404 30.8491 21.1169 30.7273 21.1169 30.5961V21.4406H22.9438V29.6897H30.3709V31.5166Z" fill="black"/>
<path d="M55.0226 31.4474H53.1957V28.974H46.7734V31.4474H44.9465V26.4093C44.9465 25.6739 45.073 24.997 45.3259 24.3787C45.5789 23.7603 45.9302 23.2287 46.3799 22.7836C46.8296 22.3386 47.3613 21.992 47.9749 21.7437C48.5886 21.4954 49.2584 21.3713 49.9845 21.3713H54.1021C54.2286 21.3713 54.348 21.3947 54.4604 21.4416C54.5729 21.4884 54.6712 21.554 54.7556 21.6383C54.8399 21.7226 54.9055 21.821 54.9523 21.9334C54.9991 22.0459 55.0226 22.1653 55.0226 22.2918V31.4474ZM46.7734 27.1471H53.1957V23.1982H49.9845C49.9283 23.1982 49.8089 23.2076 49.6262 23.2263C49.4482 23.2404 49.2397 23.2802 49.0008 23.3458C48.7666 23.4114 48.5183 23.5121 48.256 23.6479C47.9937 23.7838 47.7524 23.9711 47.5323 24.21C47.3121 24.4489 47.1294 24.7487 46.9842 25.1094C46.8437 25.4654 46.7734 25.8988 46.7734 26.4093V27.1471Z" fill="black"/>
<path d="M92.5478 27.2333H86.772V25.3923H92.5478V27.2333ZM93.3629 23.1017H86.0412V31.3508H84.2143V22.1952C84.2143 22.0688 84.2378 21.9493 84.2846 21.8369C84.3314 21.7245 84.3947 21.6261 84.4743 21.5418C84.5586 21.4574 84.657 21.3919 84.7694 21.345C84.8819 21.2982 85.0036 21.2748 85.1348 21.2748H93.3629V23.1017ZM105.244 31.3508H96.9102C96.779 31.3508 96.6572 31.3274 96.5448 31.2806C96.4324 31.2337 96.334 31.1705 96.2497 31.0908C96.1701 31.0065 96.1068 30.9082 96.06 30.7957C96.0131 30.6833 95.9897 30.5615 95.9897 30.4304V21.2748H97.8166V29.5239H105.244V31.3508Z" fill="black"/>
<path d="M124.102 24.8723L127.179 21.2748H129.674L125.338 26.3268L129.646 31.3508H127.165L124.102 27.7813L121.052 31.3508H118.565L122.865 26.3268L118.551 21.2748H121.024L124.102 24.8723ZM133.818 31.3508H131.991V21.2748H133.818V31.3508Z" fill="black"/>
<path d="M76.118 23.8376C74.727 22.7512 73.0553 22.0836 71.2986 21.9132C69.5419 21.7427 67.773 22.0764 66.1991 22.8752C64.6252 23.674 63.3116 24.9048 62.4121 26.4234C61.5126 27.9419 61.0646 29.6854 61.1204 31.4495H64.7176C64.6823 30.3333 64.7773 29.1223 65.3465 28.1614C65.9156 27.2006 66.7468 26.4219 67.7426 25.9164C68.7384 25.411 69.8577 25.1999 70.9692 25.3077C72.0807 25.4156 73.1385 25.8379 74.0186 26.5254L76.118 23.8376Z" fill="#5E52FD"/>
<path d="M78.7852 21.8C78.7852 21.8 72.3898 29.39 71.8511 30.4897C71.1001 32.0226 72.698 32.4465 73.4484 31.5787C73.9345 31.0167 74.7017 29.7172 75.5046 28.2431C75.6267 28.457 75.7355 28.6788 75.8301 28.9073C76.1254 29.6202 76.2774 30.8072 76.2774 31.5787H79.6878C79.6878 30.3593 79.4477 28.7288 78.981 27.6022C78.5676 26.6041 77.9836 25.6869 77.2562 24.891C78.1292 23.1655 78.7852 21.8 78.7852 21.8Z" fill="#EE7517"/>
<path d="M40.4144 31.4602V29.1247C38.7368 29.4191 34.9787 28.713 34.3568 28.4314C34.0284 28.2826 31.349 29.8079 34.0284 30.7303C35.8092 31.3434 39.0277 31.4723 40.4144 31.4602Z" fill="black"/>
<path d="M40.4143 20.8046V23.1401C40.6698 23.1401 40.3559 23.1985 37.0571 23.432C33.7583 23.6656 32.3984 24.7944 32.1308 25.3296C31.8145 25.1836 32.1308 24.5997 32.1308 22.8482C32.1308 21.6804 38.0789 20.5127 40.4143 20.8046Z" fill="black"/>
<path d="M40.4143 24.4326V26.768C40.6698 26.768 40.3559 26.8264 37.0571 27.06C33.7583 27.2935 32.3984 28.4223 32.1308 28.9575C31.8145 28.8115 32.1308 28.2277 32.1308 26.4761C32.1308 25.3084 38.0789 24.1406 40.4143 24.4326Z" fill="black"/>
<path d="M115.326 31.4602V29.1247C113.648 29.4191 109.89 28.713 109.268 28.4314C108.94 28.2826 106.26 29.8079 108.94 30.7303C110.72 31.3434 113.939 31.4723 115.326 31.4602Z" fill="black"/>
<path d="M115.326 20.8046V23.1401C115.581 23.1401 115.267 23.1985 111.969 23.432C108.67 23.6656 107.31 24.7944 107.042 25.3296C106.726 25.1836 107.042 24.5997 107.042 22.8482C107.042 21.6804 112.99 20.5127 115.326 20.8046Z" fill="black"/>
<path d="M115.326 24.4326V26.768C115.581 26.768 115.267 26.8264 111.969 27.06C108.67 27.2935 107.31 28.4223 107.042 28.9575C106.726 28.8115 107.042 28.2277 107.042 26.4761C107.042 25.3084 112.99 24.1406 115.326 24.4326Z" fill="black"/>
<defs>
<linearGradient id="paint0_linear_787_470" x1="69.0908" y1="0.0679932" x2="69.0908" y2="31.4575" gradientUnits="userSpaceOnUse">
<stop stop-color="#2133D6"/>
<stop offset="0.65" stop-color="#7D21CF"/>
</linearGradient>
<linearGradient id="paint1_linear_787_470" x1="69.0908" y1="0.0679932" x2="69.0908" y2="31.4575" gradientUnits="userSpaceOnUse">
<stop stop-color="#2133D6"/>
<stop offset="0.65" stop-color="#7D21CF"/>
</linearGradient>
</defs>
</svg>
