<svg width="22" height="15" viewBox="0 0 22 15" fill="none" xmlns="http://www.w3.org/2000/svg">
<path d="M20.5572 6.61504L17.567 5.41948L15.8292 1.36425C15.4737 0.535496 14.6623 0 13.7608 0H6.88174C5.88275 0 4.9925 0.671252 4.718 1.632L3.6845 5.25H2C1.17275 5.25 0.5 5.92278 0.5 6.75V11.25C0.5 12.0772 1.17275 12.75 2 12.75H3.6065C3.94175 14.04 5.1065 15 6.5 15C7.89348 15 9.05826 14.04 9.39348 12.75H12.6065C12.9417 14.04 14.1065 15 15.5 15C16.8935 15 18.0583 14.04 18.3935 12.75H20C20.8272 12.75 21.5 12.0772 21.5 11.25V8.00774C21.5 7.39052 21.1303 6.84374 20.5572 6.61504ZM6.5 13.5C5.67275 13.5 5 12.8272 5 12C5 11.1728 5.67275 10.5 6.5 10.5C7.32722 10.5 8 11.1728 8 12C8 12.8272 7.32722 13.5 6.5 13.5ZM15.5 13.5C14.6728 13.5 14 12.8272 14 12C14 11.1728 14.6728 10.5 15.5 10.5C16.3272 10.5 17 11.1728 17 12C17 12.8272 16.3272 13.5 15.5 13.5ZM20 11.25H18.3935C18.0583 9.96 16.8935 9 15.5 9C14.1065 9 12.9417 9.96 12.6065 11.25H9.39348C9.05826 9.96 7.89348 9 6.5 9C5.1065 9 3.94175 9.96 3.6065 11.25H2V6.75H4.25C4.5845 6.75 4.87925 6.528 4.97075 6.20626L6.15948 2.0445C6.25174 1.7235 6.548 1.5 6.88174 1.5H13.7608C14.0608 1.5 14.3315 1.6785 14.45 1.9545L16.31 6.29548C16.388 6.47852 16.5357 6.62252 16.7203 6.69678L20 8.00774V11.25Z" fill="#050B20"/>
</svg>
