<svg width="45" height="45" viewBox="0 0 45 45" fill="none" xmlns="http://www.w3.org/2000/svg">
<rect x="0.5" y="0.0849609" width="44" height="44" rx="22" fill="#F3F5F9"/>
<path d="M20.7949 22.7127C20.7949 23.3316 21.0408 23.9251 21.4783 24.3626C21.9159 24.8002 22.5094 25.0461 23.1283 25.0461C23.7471 25.0461 24.3406 24.8002 24.7782 24.3626C25.2158 23.9251 25.4616 23.3316 25.4616 22.7127C25.4616 22.0939 25.2158 21.5004 24.7782 21.0628C24.3406 20.6252 23.7471 20.3794 23.1283 20.3794C22.5094 20.3794 21.9159 20.6252 21.4783 21.0628C21.0408 21.5004 20.7949 22.0939 20.7949 22.7127Z" stroke="#7149E1" stroke-width="2.46512" stroke-linecap="round" stroke-linejoin="round"/>
<path d="M23.127 29.7124C22.7443 29.7124 22.3671 29.693 21.9953 29.6541C18.2938 29.2667 15.1711 26.9528 12.627 22.7124C15.427 18.0457 18.927 15.7124 23.127 15.7124C27.1691 15.7124 30.5629 17.8738 33.3085 22.1967M32.6936 32.2791L34.7936 34.3791M26.627 29.7124C26.627 30.6407 26.9957 31.5309 27.6521 32.1873C28.3085 32.8437 29.1987 33.2124 30.127 33.2124C31.0552 33.2124 31.9455 32.8437 32.6018 32.1873C33.2582 31.5309 33.627 30.6407 33.627 29.7124C33.627 28.7841 33.2582 27.8939 32.6018 27.2375C31.9455 26.5812 31.0552 26.2124 30.127 26.2124C29.1987 26.2124 28.3085 26.5812 27.6521 27.2375C26.9957 27.8939 26.627 28.7841 26.627 29.7124Z" stroke="#7149E1" stroke-width="2.46512" stroke-linecap="round" stroke-linejoin="round"/>
</svg>
