<svg width="45" height="44" viewBox="0 0 45 44" fill="none" xmlns="http://www.w3.org/2000/svg">
<rect x="0.5" width="44" height="44" rx="22" fill="#F3F5F9"/>
<path d="M12.5133 19.9262C12.5133 19.3022 13.0191 18.7964 13.6431 18.7964L17.0327 18.7964L17.0327 32.3545L13.6431 32.3545C13.0191 32.3545 12.5133 31.8486 12.5133 31.2246L12.5133 19.9262Z" stroke="#7149E1" stroke-width="2.46512"/>
<path d="M19.5683 31.7852L17.0327 30.0948L17.0327 21.056L18.0398 21.056C18.4622 21.056 18.8493 20.8204 19.0433 20.4453L22.3564 14.0401C23.241 12.3298 25.8394 13.1852 25.5352 15.0865L25.1509 17.488C25.0411 18.1745 25.5714 18.7964 26.2666 18.7964L30.0715 18.7964C31.5049 18.7964 32.576 20.1137 32.2837 21.5169L30.588 29.6563C30.2606 31.2281 28.8753 32.3545 27.2697 32.3545L21.4485 32.3545C20.7793 32.3545 20.1251 32.1564 19.5683 31.7852Z" stroke="#7149E1" stroke-width="2.46512"/>
</svg>
