<svg width="45" height="45" viewBox="0 0 45 45" fill="none" xmlns="http://www.w3.org/2000/svg">
<rect x="0.5" y="0.0849609" width="44" height="44" rx="22" fill="#F3F5F9"/>
<path d="M20.0345 22.1283L22.3678 24.4616L27.2109 19.6185M22.8071 12.3032L15.8071 14.3032C15.3062 14.4463 14.9609 14.9041 14.9609 15.425L14.9609 21.3744C14.9609 25.1422 16.7805 28.678 19.8465 30.868L22.4495 32.7273C22.8551 33.017 23.4001 33.017 23.8057 32.7273L26.4087 30.868C29.4747 28.678 31.2943 25.1422 31.2943 21.3744V15.425C31.2943 14.9041 30.949 14.4463 30.4481 14.3032L23.4481 12.3032C23.2386 12.2433 23.0166 12.2433 22.8071 12.3032Z" stroke="#7149E1" stroke-width="2.46512" stroke-linecap="round" stroke-linejoin="round"/>
</svg>
