<svg width="45" height="45" viewBox="0 0 45 45" fill="none" xmlns="http://www.w3.org/2000/svg">
<rect x="0.5" y="0.0849609" width="44" height="44" rx="22" fill="white" fill-opacity="0.22"/>
<path d="M31.1909 27.4288C29.708 29.4698 27.5384 30.9072 25.0807 31.4768C22.623 32.0465 20.0422 31.7102 17.8126 30.5297C15.583 29.3491 13.8543 27.4037 12.944 25.0508C12.0337 22.6979 12.0031 20.0955 12.8577 17.7218C13.7122 15.3481 15.3947 13.3625 17.5959 12.1298C19.797 10.8971 22.3691 10.5 24.8395 11.0116C27.31 11.5232 29.5128 12.9091 31.0434 14.9146C32.574 16.9202 33.3295 19.4107 33.1711 21.9285M33.1711 21.9285L35.1354 19.9641M33.1711 21.9285L31.2067 19.9641M22.715 16.0323V21.2707L26.6438 25.1995" stroke="#E8E8E8" stroke-width="2.46512" stroke-linecap="round" stroke-linejoin="round"/>
</svg>
