<svg width="18" height="19" viewBox="0 0 18 19" fill="none" xmlns="http://www.w3.org/2000/svg">
<path d="M8.99775 12.11C8.66375 12.11 8.37875 11.9913 8.14275 11.7537C7.90675 11.5162 7.78875 11.2305 7.78875 10.8965C7.78875 10.5625 7.9075 10.2775 8.145 10.0415C8.3825 9.8055 8.6685 9.6875 9.003 9.6875C9.3375 9.6875 9.6225 9.8065 9.858 10.0445C10.0935 10.2825 10.2115 10.5683 10.212 10.9018C10.2125 11.2353 10.0935 11.5203 9.855 11.7568C9.6165 11.9932 9.33075 12.1112 8.99775 12.1108M6.28125 6.3125H11.7188L12.675 4.37075C12.781 4.16925 12.7765 3.97375 12.6615 3.78425C12.5465 3.59475 12.374 3.5 12.144 3.5H5.856C5.626 3.5 5.4535 3.59475 5.3385 3.78425C5.2235 3.97375 5.219 4.1695 5.325 4.3715L6.28125 6.3125ZM6.47325 15.5H11.5268C12.4918 15.5 13.3118 15.1623 13.9867 14.4867C14.6623 13.8112 15 12.9897 15 12.0223C15 11.6182 14.9307 11.2247 14.7922 10.8417C14.6537 10.4587 14.4538 10.11 14.1923 9.7955L11.9107 7.0625H6.08925L3.80775 9.7955C3.54625 10.11 3.34625 10.4587 3.20775 10.8417C3.06925 11.2242 3 11.6178 3 12.0223C3 12.9897 3.33775 13.8112 4.01325 14.4867C4.68875 15.1623 5.50875 15.5 6.47325 15.5Z" fill="#EE7517"/>
</svg>
