<svg width="14" height="18" viewBox="0 0 14 18" fill="none" xmlns="http://www.w3.org/2000/svg">
<path d="M6.99995 13.0504C6.54743 13.0505 6.11147 12.8801 5.7789 12.5732C5.44633 12.2664 5.24155 11.8455 5.20535 11.3944C4.00492 10.9695 2.9932 10.1341 2.34877 9.03582C1.70435 7.9375 1.46866 6.64682 1.68331 5.39163C1.89797 4.13644 2.54916 2.99743 3.52194 2.17567C4.49472 1.35392 5.72654 0.902245 6.99995 0.900391C8.35436 0.900194 9.65938 1.40897 10.6563 2.32583C11.6531 3.2427 12.2691 4.5007 12.382 5.85039C12.3857 5.90893 12.3773 5.96762 12.3571 6.02272C12.337 6.07782 12.3056 6.12813 12.265 6.17045C12.2243 6.21277 12.1754 6.24617 12.1211 6.26854C12.0669 6.29091 12.0086 6.30176 11.95 6.30039C11.8294 6.29737 11.7143 6.24964 11.627 6.16647C11.5396 6.08331 11.4863 5.97065 11.4775 5.85039C11.3973 5.05464 11.1065 4.29463 10.635 3.64861C10.1636 3.00258 9.52843 2.49388 8.79503 2.17487C8.06163 1.85586 7.25646 1.73808 6.46241 1.83364C5.66837 1.9292 4.91414 2.23466 4.27737 2.71857C3.6406 3.20248 3.1443 3.84735 2.83957 4.58679C2.53483 5.32624 2.43267 6.13353 2.54361 6.92558C2.65454 7.71762 2.97456 8.46579 3.47072 9.09307C3.96687 9.72034 4.62124 10.204 5.36645 10.4944C5.50205 10.2014 5.71395 9.95027 5.97996 9.76731C6.24596 9.58436 6.55628 9.47631 6.87839 9.4545C7.2005 9.43269 7.52255 9.49792 7.81079 9.64334C8.09903 9.78877 8.34286 10.009 8.51671 10.2811C8.69057 10.5531 8.78806 10.8669 8.79897 11.1896C8.80987 11.5122 8.7338 11.8319 8.57871 12.1151C8.42362 12.3982 8.19523 12.6345 7.91747 12.799C7.63971 12.9636 7.3228 13.0504 6.99995 13.0504ZM2.50805 10.8004H2.58995C2.94095 11.1433 3.33065 11.4457 3.75275 11.7004H2.50805C2.00315 11.7004 1.59995 12.1027 1.59995 12.6004C1.59995 13.7785 2.15975 14.656 3.10565 15.2581C4.06865 15.8728 5.43845 16.2004 6.99995 16.2004C8.56145 16.2004 9.93125 15.8728 10.8943 15.2581C11.8393 14.6551 12.4 13.7794 12.4 12.6004C12.4 12.3617 12.3051 12.1328 12.1363 11.964C11.9676 11.7952 11.7386 11.7004 11.5 11.7004H9.66305C9.7134 11.4025 9.7134 11.0983 9.66305 10.8004H11.5C11.9773 10.8004 12.4352 10.99 12.7727 11.3276C13.1103 11.6652 13.3 12.123 13.3 12.6004C13.3 14.1223 12.5503 15.2698 11.3785 16.0177C10.2247 16.753 8.66945 17.1004 6.99995 17.1004C5.33045 17.1004 3.77525 16.753 2.62145 16.0177C1.44965 15.2707 0.699951 14.1214 0.699951 12.6004C0.699951 11.5987 1.51265 10.8004 2.50805 10.8004ZM10.6 6.30039C10.6001 6.90937 10.4459 7.50844 10.1515 8.04156C9.85717 8.57467 9.43241 9.02441 8.91695 9.34869C8.67668 9.10642 8.39267 8.91189 8.07995 8.77539C8.64846 8.52727 9.11421 8.09097 9.39886 7.53984C9.68352 6.98871 9.76973 6.35638 9.643 5.74916C9.51627 5.14195 9.18432 4.59689 8.70298 4.20564C8.22163 3.81438 7.62025 3.6008 6.99995 3.6008C6.37965 3.6008 5.77827 3.81438 5.29693 4.20564C4.81558 4.59689 4.48364 5.14195 4.3569 5.74916C4.23017 6.35638 4.31638 6.98871 4.60104 7.53984C4.8857 8.09097 5.35144 8.52727 5.91995 8.77539C5.60495 8.91309 5.32145 9.10839 5.08295 9.34869C4.39933 8.91878 3.88011 8.2715 3.60875 7.51089C3.47032 7.12233 3.39969 6.71287 3.39995 6.30039C3.39995 5.34561 3.77924 4.42994 4.45437 3.75481C5.1295 3.07968 6.04517 2.70039 6.99995 2.70039C7.95473 2.70039 8.87041 3.07968 9.54554 3.75481C10.2207 4.42994 10.6 5.34561 10.6 6.30039Z" fill="#666666"/>
</svg>
