<svg width="16" height="16" viewBox="0 0 16 16" fill="none" xmlns="http://www.w3.org/2000/svg">
<path fill-rule="evenodd" clip-rule="evenodd" d="M12.5 8.55224e-08H12.4822C12.0314 -3.25234e-06 11.6677 -5.99415e-06 11.3717 0.0201902C11.0673 0.0409573 10.7981 0.0847393 10.5433 0.190302C9.93072 0.444036 9.44404 0.930722 9.1903 1.54329C9.08474 1.79814 9.04096 2.06728 9.02019 2.37165C8.99999 2.66766 9 3.03136 9 3.48224V3.5V3.51776C9 3.96864 8.99999 4.33234 9.02019 4.62835C9.04096 4.93272 9.08474 5.20186 9.1903 5.45671C9.44404 6.06928 9.93072 6.55596 10.5433 6.8097C10.7981 6.91526 11.0673 6.95904 11.3717 6.97981C11.6677 7.00001 12.0314 7 12.4822 7H12.5H12.5178C12.9686 7 13.3323 7.00001 13.6283 6.97981C13.9327 6.95904 14.2019 6.91526 14.4567 6.8097C15.0693 6.55596 15.556 6.06928 15.8097 5.45671C15.9153 5.20186 15.959 4.93272 15.9798 4.62835C16 4.33234 16 3.96864 16 3.51776V3.5V3.48224C16 3.03136 16 2.66766 15.9798 2.37165C15.959 2.06728 15.9153 1.79814 15.8097 1.54329C15.556 0.930722 15.0693 0.444036 14.4567 0.190302C14.2019 0.0847393 13.9327 0.0409573 13.6283 0.0201902C13.3323 -5.99415e-06 12.9686 -3.25234e-06 12.5178 8.55224e-08H12.5ZM10.926 1.11418C11.0387 1.0675 11.1863 1.03516 11.4397 1.01787C11.6977 1.00027 12.0272 1 12.5 1C12.9728 1 13.3023 1.00027 13.5603 1.01787C13.8137 1.03516 13.9613 1.0675 14.074 1.11418C14.4416 1.26642 14.7336 1.55843 14.8858 1.92598C14.9325 2.03867 14.9648 2.18627 14.9821 2.43972C14.9997 2.69767 15 3.02722 15 3.5C15 3.97278 14.9997 4.30233 14.9821 4.56028C14.9648 4.81373 14.9325 4.96133 14.8858 5.07403C14.7336 5.44157 14.4416 5.73358 14.074 5.88582C13.9613 5.9325 13.8137 5.96484 13.5603 5.98213C13.3023 5.99973 12.9728 6 12.5 6C12.0272 6 11.6977 5.99973 11.4397 5.98213C11.1863 5.96484 11.0387 5.9325 10.926 5.88582C10.5584 5.73358 10.2664 5.44157 10.1142 5.07403C10.0675 4.96133 10.0352 4.81373 10.0179 4.56028C10.0003 4.30233 10 3.97278 10 3.5C10 3.02722 10.0003 2.69767 10.0179 2.43972C10.0352 2.18627 10.0675 2.03867 10.1142 1.92598C10.2664 1.55843 10.5584 1.26642 10.926 1.11418ZM3.5 8.55224e-08H3.48224H3.48224C3.03136 -3.25235e-06 2.66766 -5.94572e-06 2.37165 0.0201902C2.06728 0.0409573 1.79814 0.0847393 1.54329 0.190302C0.930722 0.444036 0.444036 0.930722 0.190302 1.54329C0.0847393 1.79814 0.0409573 2.06728 0.0201902 2.37165C-5.94485e-06 2.66766 -3.25235e-06 3.03136 8.55224e-08 3.48224V3.48224V3.5V3.51776V3.51776C-3.25235e-06 3.96864 -5.94572e-06 4.33234 0.0201902 4.62835C0.0409573 4.93272 0.0847393 5.20186 0.190302 5.45671C0.444036 6.06928 0.930722 6.55596 1.54329 6.8097C1.79814 6.91526 2.06728 6.95904 2.37165 6.97981C2.66766 7.00001 3.03136 7 3.48224 7H3.5H3.51776C3.96864 7 4.33234 7.00001 4.62835 6.97981C4.93272 6.95904 5.20186 6.91526 5.45671 6.8097C6.06928 6.55596 6.55596 6.06928 6.8097 5.45671C6.91526 5.20186 6.95904 4.93272 6.97981 4.62835C7.00001 4.33234 7 3.96864 7 3.51776V3.5V3.48224C7 3.03136 7.00001 2.66766 6.97981 2.37165C6.95904 2.06728 6.91526 1.79814 6.8097 1.54329C6.55596 0.930722 6.06928 0.444036 5.45671 0.190302C5.20186 0.0847393 4.93272 0.0409573 4.62835 0.0201902C4.33234 -5.94485e-06 3.96864 -3.25235e-06 3.51776 8.55224e-08H3.51776H3.5ZM1.92598 1.11418C2.03867 1.0675 2.18627 1.03516 2.43972 1.01787C2.69767 1.00027 3.02722 1 3.5 1C3.97278 1 4.30233 1.00027 4.56028 1.01787C4.81373 1.03516 4.96133 1.0675 5.07403 1.11418C5.44157 1.26642 5.73358 1.55843 5.88582 1.92598C5.9325 2.03867 5.96484 2.18627 5.98213 2.43972C5.99973 2.69767 6 3.02722 6 3.5C6 3.97278 5.99973 4.30233 5.98213 4.56028C5.96484 4.81373 5.9325 4.96133 5.88582 5.07403C5.73358 5.44157 5.44157 5.73358 5.07403 5.88582C4.96133 5.9325 4.81373 5.96484 4.56028 5.98213C4.30233 5.99973 3.97278 6 3.5 6C3.02722 6 2.69767 5.99973 2.43972 5.98213C2.18627 5.96484 2.03867 5.9325 1.92598 5.88582C1.55843 5.73358 1.26642 5.44157 1.11418 5.07403C1.0675 4.96133 1.03516 4.81373 1.01787 4.56028C1.00027 4.30233 1 3.97278 1 3.5C1 3.02722 1.00027 2.69767 1.01787 2.43972C1.03516 2.18627 1.0675 2.03867 1.11418 1.92598C1.26642 1.55843 1.55843 1.26642 1.92598 1.11418ZM3.48224 9H3.5H3.51776C3.96864 9 4.33234 8.99999 4.62835 9.02019C4.93272 9.04096 5.20186 9.08474 5.45671 9.1903C6.06928 9.44404 6.55596 9.93072 6.8097 10.5433C6.91526 10.7981 6.95904 11.0673 6.97981 11.3717C7.00001 11.6677 7 12.0314 7 12.4822V12.5V12.5178C7 12.9686 7.00001 13.3323 6.97981 13.6283C6.95904 13.9327 6.91526 14.2019 6.8097 14.4567C6.55596 15.0693 6.06928 15.556 5.45671 15.8097C5.20186 15.9153 4.93272 15.959 4.62835 15.9798C4.33234 16 3.96864 16 3.51776 16H3.5H3.48224C3.03136 16 2.66766 16 2.37165 15.9798C2.06728 15.959 1.79814 15.9153 1.54329 15.8097C0.930722 15.556 0.444036 15.0693 0.190302 14.4567C0.0847393 14.2019 0.0409573 13.9327 0.0201902 13.6283C-5.99415e-06 13.3323 -3.25234e-06 12.9686 8.55224e-08 12.5178V12.5V12.4822C-3.25234e-06 12.0314 -5.99415e-06 11.6677 0.0201902 11.3717C0.0409573 11.0673 0.0847393 10.7981 0.190302 10.5433C0.444036 9.93072 0.930722 9.44404 1.54329 9.1903C1.79814 9.08474 2.06728 9.04096 2.37165 9.02019C2.66766 8.99999 3.03136 9 3.48224 9ZM2.43972 10.0179C2.18627 10.0352 2.03867 10.0675 1.92598 10.1142C1.55843 10.2664 1.26642 10.5584 1.11418 10.926C1.0675 11.0387 1.03516 11.1863 1.01787 11.4397C1.00027 11.6977 1 12.0272 1 12.5C1 12.9728 1.00027 13.3023 1.01787 13.5603C1.03516 13.8137 1.0675 13.9613 1.11418 14.074C1.26642 14.4416 1.55843 14.7336 1.92598 14.8858C2.03867 14.9325 2.18627 14.9648 2.43972 14.9821C2.69767 14.9997 3.02722 15 3.5 15C3.97278 15 4.30233 14.9997 4.56028 14.9821C4.81373 14.9648 4.96133 14.9325 5.07403 14.8858C5.44157 14.7336 5.73358 14.4416 5.88582 14.074C5.9325 13.9613 5.96484 13.8137 5.98213 13.5603C5.99973 13.3023 6 12.9728 6 12.5C6 12.0272 5.99973 11.6977 5.98213 11.4397C5.96484 11.1863 5.9325 11.0387 5.88582 10.926C5.73358 10.5584 5.44157 10.2664 5.07403 10.1142C4.96133 10.0675 4.81373 10.0352 4.56028 10.0179C4.30233 10.0003 3.97278 10 3.5 10C3.02722 10 2.69767 10.0003 2.43972 10.0179ZM12.5 9H12.4822C12.0314 9 11.6677 8.99999 11.3717 9.02019C11.0673 9.04096 10.7981 9.08474 10.5433 9.1903C9.93072 9.44404 9.44404 9.93072 9.1903 10.5433C9.08474 10.7981 9.04096 11.0673 9.02019 11.3717C8.99999 11.6677 9 12.0314 9 12.4822V12.5V12.5178C9 12.9686 8.99999 13.3323 9.02019 13.6283C9.04096 13.9327 9.08474 14.2019 9.1903 14.4567C9.44404 15.0693 9.93072 15.556 10.5433 15.8097C10.7981 15.9153 11.0673 15.959 11.3717 15.9798C11.6677 16 12.0314 16 12.4822 16H12.5H12.5178C12.9686 16 13.3323 16 13.6283 15.9798C13.9327 15.959 14.2019 15.9153 14.4567 15.8097C15.0693 15.556 15.556 15.0693 15.8097 14.4567C15.9153 14.2019 15.959 13.9327 15.9798 13.6283C16 13.3323 16 12.9686 16 12.5178V12.5V12.4822C16 12.0314 16 11.6677 15.9798 11.3717C15.959 11.0673 15.9153 10.7981 15.8097 10.5433C15.556 9.93072 15.0693 9.44404 14.4567 9.1903C14.2019 9.08474 13.9327 9.04096 13.6283 9.02019C13.3323 8.99999 12.9686 9 12.5178 9H12.5ZM10.926 10.1142C11.0387 10.0675 11.1863 10.0352 11.4397 10.0179C11.6977 10.0003 12.0272 10 12.5 10C12.9728 10 13.3023 10.0003 13.5603 10.0179C13.8137 10.0352 13.9613 10.0675 14.074 10.1142C14.4416 10.2664 14.7336 10.5584 14.8858 10.926C14.9325 11.0387 14.9648 11.1863 14.9821 11.4397C14.9997 11.6977 15 12.0272 15 12.5C15 12.9728 14.9997 13.3023 14.9821 13.5603C14.9648 13.8137 14.9325 13.9613 14.8858 14.074C14.7336 14.4416 14.4416 14.7336 14.074 14.8858C13.9613 14.9325 13.8137 14.9648 13.5603 14.9821C13.3023 14.9997 12.9728 15 12.5 15C12.0272 15 11.6977 14.9997 11.4397 14.9821C11.1863 14.9648 11.0387 14.9325 10.926 14.8858C10.5584 14.7336 10.2664 14.4416 10.1142 14.074C10.0675 13.9613 10.0352 13.8137 10.0179 13.5603C10.0003 13.3023 10 12.9728 10 12.5C10 12.0272 10.0003 11.6977 10.0179 11.4397C10.0352 11.1863 10.0675 11.0387 10.1142 10.926C10.2664 10.5584 10.5584 10.2664 10.926 10.1142Z" fill="#666666"/>
</svg>
