<svg width="162" height="43" viewBox="0 0 162 43" fill="none" xmlns="http://www.w3.org/2000/svg">
<path d="M16.5728 23.1451C23.7617 19.999 51.9592 21.1079 69.4069 21.1079C47.1313 17.1194 8.53144 14.6047 1.856 19.998C-4.81943 25.3913 8.0145 33.842 16.5728 36.8382C13.5774 32.9057 9.38384 26.2911 16.5728 23.1451Z" fill="url(#paint0_linear_537_30293)"/>
<path d="M117.897 10.2779C104.547 3.0869 63.5526 9.52883 44.7244 13.6487C105.317 -11.0704 141.861 3.34906 152.558 13.6487V10.2779C156.838 8.59251 164.369 6.23298 160.261 10.2779C156.153 14.3228 157.759 21.4597 159.47 23.1451C137.062 16.784 90.294 25.4334 96.074 24.3228C109.107 20.1202 131.248 17.4689 117.897 10.2779Z" fill="url(#paint1_linear_537_30293)"/>
<path d="M35.2822 36.9081H25.5021C25.3482 36.9081 25.2053 36.8807 25.0733 36.8257C24.9414 36.7707 24.8259 36.6965 24.727 36.603C24.6335 36.5041 24.5593 36.3886 24.5043 36.2567C24.4494 36.1248 24.4219 35.9818 24.4219 35.8279V25.083H26.5659V34.7641H35.2822V36.9081Z" fill="white"/>
<path d="M64.2149 36.3955H62.0708V33.4928H54.5338V36.3955H52.3897V30.4829C52.3897 29.6198 52.5382 28.8254 52.835 28.0998C53.1319 27.3741 53.5442 26.7501 54.072 26.2279C54.5997 25.7056 55.2237 25.2988 55.9439 25.0074C56.664 24.7161 57.4502 24.5704 58.3023 24.5704H63.1346C63.283 24.5704 63.4232 24.5979 63.5552 24.6528C63.6871 24.7078 63.8025 24.7848 63.9015 24.8837C64.0005 24.9827 64.0774 25.0981 64.1324 25.2301C64.1874 25.362 64.2149 25.5022 64.2149 25.6506V36.3955ZM54.5338 31.3488H62.0708V26.7144H58.3023C58.2363 26.7144 58.0961 26.7254 57.8817 26.7474C57.6728 26.7639 57.4282 26.8106 57.1478 26.8876C56.8729 26.9645 56.5816 27.0827 56.2737 27.2422C55.9659 27.4016 55.6827 27.6215 55.4243 27.9019C55.166 28.1822 54.9516 28.5341 54.7811 28.9574C54.6162 29.3752 54.5338 29.8837 54.5338 30.4829V31.3488Z" fill="white"/>
<path d="M108.254 31.4509H101.475V29.2904H108.254V31.4509ZM109.21 26.6021H100.618V36.2832H98.4737V25.5383C98.4737 25.3899 98.5012 25.2497 98.5562 25.1178C98.6111 24.9858 98.6854 24.8704 98.7788 24.7714C98.8778 24.6725 98.9932 24.5955 99.1252 24.5405C99.2571 24.4856 99.4 24.4581 99.554 24.4581H109.21V26.6021ZM123.153 36.2832H113.373C113.219 36.2832 113.077 36.2557 112.945 36.2007C112.813 36.1458 112.697 36.0715 112.598 35.9781C112.505 35.8791 112.431 35.7637 112.376 35.6317C112.321 35.4998 112.293 35.3569 112.293 35.2029V24.4581H114.437V34.1392H123.153V36.2832Z" fill="white"/>
<path d="M145.285 28.6802L148.897 24.4581H151.824L146.736 30.3871L151.791 36.2832H148.881L145.285 32.0941L141.706 36.2832H138.787L143.834 30.3871L138.771 24.4581H141.673L145.285 28.6802ZM156.688 36.2832H154.544V24.4581H156.688V36.2832Z" fill="white"/>
<path d="M88.9717 27.8952C87.3393 26.6201 85.3773 25.8367 83.3157 25.6367C81.254 25.4366 79.1781 25.8283 77.331 26.7657C75.4839 27.7032 73.9423 29.1476 72.8867 30.9298C71.8311 32.7119 71.3052 34.758 71.3707 36.8283H75.5923C75.5509 35.5184 75.6625 34.0972 76.3304 32.9696C76.9983 31.8419 77.9738 30.928 79.1424 30.3348C80.3111 29.7417 81.6247 29.4939 82.9291 29.6204C84.2336 29.747 85.475 30.2427 86.5079 31.0495L88.9717 27.8952Z" fill="#5E52FD"/>
<path d="M92.1019 25.5039C92.1019 25.5039 84.5964 34.4114 83.9641 35.702C83.0828 37.501 84.958 37.9984 85.8387 36.98C86.4091 36.3204 87.3096 34.7954 88.2518 33.0654C88.3951 33.3164 88.5228 33.5767 88.6338 33.8449C88.9804 34.6815 89.1587 36.0745 89.1587 36.98H93.1612C93.1612 35.5489 92.8793 33.6354 92.3316 32.3132C91.8465 31.1419 91.1611 30.0654 90.3075 29.1314C91.3321 27.1064 92.1019 25.5039 92.1019 25.5039Z" fill="#EE7517"/>
<path d="M47.0696 36.8408V34.1C45.1008 34.4454 40.6904 33.6168 39.9605 33.2863C39.5751 33.1117 36.4306 34.9018 39.5751 35.9843C41.665 36.7038 45.4422 36.8551 47.0696 36.8408Z" fill="white"/>
<path d="M47.07 24.3364V27.0773C47.3698 27.0773 47.0015 27.1458 43.13 27.4199C39.2586 27.694 37.6626 29.0187 37.3486 29.6468C36.9774 29.4755 37.3486 28.7903 37.3486 26.7347C37.3485 25.3643 44.3291 23.9938 47.07 24.3364Z" fill="white"/>
<path d="M47.07 28.5933V31.3341C47.3698 31.3341 47.0015 31.4026 43.13 31.6767C39.2586 31.9508 37.6626 33.2756 37.3486 33.9037C36.9774 33.7324 37.3486 33.0472 37.3486 30.9915C37.3485 29.6211 44.3291 28.2507 47.07 28.5933Z" fill="white"/>
<path d="M134.984 36.8408V34.1C133.015 34.4454 128.604 33.6168 127.875 33.2863C127.489 33.1117 124.345 34.9018 127.489 35.9843C129.579 36.7038 133.356 36.8551 134.984 36.8408Z" fill="white"/>
<path d="M134.984 24.3364V27.0773C135.284 27.0773 134.916 27.1458 131.044 27.4199C127.173 27.694 125.577 29.0187 125.263 29.6468C124.891 29.4755 125.263 28.7903 125.263 26.7347C125.263 25.3643 132.243 23.9938 134.984 24.3364Z" fill="white"/>
<path d="M134.984 28.5933V31.3341C135.284 31.3341 134.916 31.4026 131.044 31.6767C127.173 31.9508 125.577 33.2756 125.263 33.9037C124.891 33.7324 125.263 33.0472 125.263 30.9915C125.263 29.6211 132.243 28.2507 134.984 28.5933Z" fill="white"/>
<defs>
<linearGradient id="paint0_linear_537_30293" x1="80.7241" y1="0" x2="80.7241" y2="36.8382" gradientUnits="userSpaceOnUse">
<stop stop-color="#2133D6"/>
<stop offset="0.65" stop-color="#7D21CF"/>
</linearGradient>
<linearGradient id="paint1_linear_537_30293" x1="80.7241" y1="0" x2="80.7241" y2="36.8382" gradientUnits="userSpaceOnUse">
<stop stop-color="#2133D6"/>
<stop offset="0.65" stop-color="#7D21CF"/>
</linearGradient>
</defs>
</svg>
