<svg width="14" height="14" viewBox="0 0 14 14" fill="none" xmlns="http://www.w3.org/2000/svg">
<path d="M3.53793 13.0894H0.813322V4.32959H3.53793V13.0894ZM2.16098 3.15771C1.31137 3.15771 0.608244 2.42529 0.608244 1.54639C0.608244 0.696777 1.31137 -0.00634766 2.16098 -0.00634766C3.03988 -0.00634766 3.74301 0.696777 3.74301 1.54639C3.74301 2.42529 3.03988 3.15771 2.16098 3.15771ZM13.7039 13.0894H11.0086V8.84131C11.0086 7.81592 10.9793 6.52686 9.57309 6.52686C8.16684 6.52686 7.96176 7.61084 7.96176 8.75342V13.0894H5.23715V4.32959H7.84457V5.53076H7.87387C8.25473 4.85693 9.13363 4.12451 10.452 4.12451C13.2059 4.12451 13.7332 5.94092 13.7332 8.28467V13.0894H13.7039Z" fill="#050B20"/>
</svg>
