<svg width="16" height="13" viewBox="0 0 16 13" fill="none" xmlns="http://www.w3.org/2000/svg">
<path d="M14.1348 3.41748C14.1348 3.56396 14.1348 3.68115 14.1348 3.82764C14.1348 7.8999 11.0586 12.5581 5.4043 12.5581C3.64648 12.5581 2.03516 12.0601 0.6875 11.1812C0.921875 11.2104 1.15625 11.2397 1.41992 11.2397C2.85547 11.2397 4.17383 10.7417 5.22852 9.92139C3.88086 9.89209 2.73828 9.01318 2.35742 7.78271C2.5625 7.81201 2.73828 7.84131 2.94336 7.84131C3.20703 7.84131 3.5 7.78271 3.73438 7.72412C2.32812 7.43115 1.27344 6.20068 1.27344 4.70654V4.67725C1.68359 4.91162 2.18164 5.02881 2.67969 5.05811C1.83008 4.50146 1.30273 3.56396 1.30273 2.50928C1.30273 1.92334 1.44922 1.396 1.71289 0.956543C3.23633 2.80225 5.52148 4.03271 8.07031 4.1792C8.01172 3.94482 7.98242 3.71045 7.98242 3.47607C7.98242 1.77686 9.35938 0.399902 11.0586 0.399902C11.9375 0.399902 12.7285 0.751465 13.3145 1.3667C13.9883 1.22021 14.6621 0.956543 15.248 0.60498C15.0137 1.3374 14.5449 1.92334 13.9004 2.3042C14.5156 2.24561 15.1309 2.06982 15.6582 1.83545C15.248 2.45068 14.7207 2.97803 14.1348 3.41748Z" fill="#050B20"/>
</svg>
